<svg width="27" height="26" viewBox="0 0 27 26" fill="none" xmlns="http://www.w3.org/2000/svg">
<path d="M8.87539 15.8333C10.0635 14.6512 11.696 13.9206 13.5 13.9206C15.304 13.9206 16.9366 14.6512 18.1247 15.8328M2.95508 9.91247C5.64809 7.21296 9.38371 5.54199 13.5 5.54199C17.6163 5.54199 21.352 7.21296 24.045 9.91247M13.5 17.8087C13.848 17.808 14.1927 17.8761 14.5143 18.009C14.8359 18.142 15.128 18.3373 15.3738 18.5837L13.5 20.4569L11.6263 18.5831C11.8721 18.3369 12.1642 18.1417 12.4858 18.0088C12.8074 17.8759 13.1521 17.8079 13.5 17.8087Z" stroke="#FCC21B" stroke-width="2" stroke-linecap="round" stroke-linejoin="round"/>
<path d="M11.626 18.584L13.4997 20.4577L15.3735 18.584" stroke="#FCC21B" stroke-width="2" stroke-linecap="round" stroke-linejoin="round"/>
<path d="M8.87477 15.8337C10.0628 14.6516 11.6954 13.921 13.4994 13.921C15.3034 13.921 16.936 14.6516 18.124 15.8331M5.98438 12.9427C7.9095 11.0181 10.5647 9.83008 13.4994 9.83008C16.4341 9.83008 19.0893 11.0181 21.0144 12.9427M13.4994 17.8091C13.8474 17.8083 14.1921 17.8764 14.5137 18.0094C14.8353 18.1424 15.1274 18.3377 15.3732 18.584L13.4994 20.4572L11.6257 18.5835C11.8715 18.3372 12.1636 18.142 12.4852 18.0091C12.8068 17.8762 13.1515 17.8083 13.4994 17.8091Z" stroke="#FCC21B" stroke-width="2" stroke-linecap="round" stroke-linejoin="round"/>
<path d="M15.3735 18.5841L13.4997 20.4573L11.626 18.5835C12.1019 18.1071 12.7627 17.8086 13.4997 17.8086C14.2368 17.8086 14.8971 18.1071 15.3735 18.5835" stroke="#FCC21B" stroke-width="2" stroke-linecap="round" stroke-linejoin="round"/>
<path d="M15.3735 18.5841L13.4997 20.4573L11.626 18.5835C12.1019 18.1071 12.7627 17.8086 13.4997 17.8086C14.2368 17.8086 14.8971 18.1071 15.3735 18.5835" stroke="#FCC21B" stroke-width="2" stroke-linecap="round" stroke-linejoin="round"/>
</svg>
