<svg width="19" height="20" viewBox="0 0 19 20" fill="none" xmlns="http://www.w3.org/2000/svg">
<path d="M2.77051 4.45866C2.77051 3.93375 2.97903 3.43034 3.35019 3.05918C3.72136 2.68801 4.22477 2.47949 4.74967 2.47949H12.6663C13.1912 2.47949 13.6947 2.68801 14.0658 3.05918C14.437 3.43034 14.6455 3.93375 14.6455 4.45866V8.81283C14.6455 8.91781 14.6038 9.01849 14.5296 9.09272C14.4553 9.16696 14.3547 9.20866 14.2497 9.20866C14.1447 9.20866 14.044 9.16696 13.9698 9.09272C13.8955 9.01849 13.8538 8.91781 13.8538 8.81283V4.45866C13.8538 4.14371 13.7287 3.84167 13.506 3.61897C13.2833 3.39627 12.9813 3.27116 12.6663 3.27116H4.74967C4.43473 3.27116 4.13268 3.39627 3.90999 3.61897C3.68729 3.84167 3.56217 4.14371 3.56217 4.45866V15.8444C3.56218 15.9119 3.57944 15.9783 3.61233 16.0372C3.64521 16.0962 3.69262 16.1457 3.75006 16.1812C3.8075 16.2167 3.87305 16.2369 3.94048 16.2398C4.00791 16.2428 4.07499 16.2285 4.13534 16.1983L4.92701 15.8025C5.1242 15.704 5.34491 15.6624 5.56442 15.6822C5.78394 15.7021 5.99359 15.7826 6.16992 15.9149L6.88717 16.4524C6.95569 16.5038 7.03903 16.5316 7.12467 16.5316C7.21032 16.5316 7.29366 16.5038 7.36217 16.4524L8.04459 15.9402C8.23346 15.7986 8.46027 15.7164 8.69604 15.7043C8.93181 15.6922 9.16585 15.7506 9.36826 15.8721L9.90105 16.1919C9.99112 16.2459 10.0561 16.3334 10.0816 16.4353C10.1071 16.5371 10.0912 16.645 10.0372 16.735C9.98326 16.8251 9.89572 16.8901 9.79388 16.9156C9.69203 16.9411 9.58421 16.9252 9.49413 16.8712L8.96055 16.5514C8.89316 16.5108 8.81523 16.4913 8.73669 16.4953C8.65816 16.4992 8.58258 16.5265 8.51959 16.5735L7.83717 17.0857C7.63162 17.2399 7.38161 17.3232 7.12467 17.3232C6.86773 17.3232 6.61773 17.2399 6.41217 17.0857L5.69492 16.5474C5.63607 16.5035 5.56618 16.4769 5.49307 16.4705C5.41995 16.4641 5.34649 16.4781 5.28088 16.511L4.48922 16.9068C4.30814 16.9974 4.10692 17.0402 3.90466 17.0311C3.70241 17.022 3.50583 16.9613 3.33362 16.8549C3.1614 16.7484 3.01927 16.5997 2.92071 16.4228C2.82215 16.246 2.77045 16.0469 2.77051 15.8444V4.45866Z" fill="black"/>
<path d="M5.14551 6.04134C5.14551 5.93636 5.18721 5.83568 5.26144 5.76144C5.33568 5.68721 5.43636 5.64551 5.54134 5.64551H10.6872C10.7922 5.64551 10.8928 5.68721 10.9671 5.76144C11.0413 5.83568 11.083 5.93636 11.083 6.04134C11.083 6.14632 11.0413 6.247 10.9671 6.32124C10.8928 6.39547 10.7922 6.43717 10.6872 6.43717H5.54134C5.43636 6.43717 5.33568 6.39547 5.26144 6.32124C5.18721 6.247 5.14551 6.14632 5.14551 6.04134ZM5.14551 8.41634C5.14551 8.31136 5.18721 8.21068 5.26144 8.13644C5.33568 8.06221 5.43636 8.02051 5.54134 8.02051H11.8747C11.9797 8.02051 12.0803 8.06221 12.1546 8.13644C12.2288 8.21068 12.2705 8.31136 12.2705 8.41634C12.2705 8.52132 12.2288 8.622 12.1546 8.69624C12.0803 8.77047 11.9797 8.81217 11.8747 8.81217H5.54134C5.43636 8.81217 5.33568 8.77047 5.26144 8.69624C5.18721 8.622 5.14551 8.52132 5.14551 8.41634ZM5.14551 10.7913C5.14551 10.6864 5.18721 10.5857 5.26144 10.5114C5.33568 10.4372 5.43636 10.3955 5.54134 10.3955H8.31217C8.41716 10.3955 8.51784 10.4372 8.59207 10.5114C8.6663 10.5857 8.70801 10.6864 8.70801 10.7913C8.70801 10.8963 8.6663 10.997 8.59207 11.0712C8.51784 11.1455 8.41716 11.1872 8.31217 11.1872H5.54134C5.43636 11.1872 5.33568 11.1455 5.26144 11.0712C5.18721 10.997 5.14551 10.8963 5.14551 10.7913ZM5.14551 13.1663C5.14551 13.0614 5.18721 12.9607 5.26144 12.8864C5.33568 12.8122 5.43636 12.7705 5.54134 12.7705H8.31217C8.41716 12.7705 8.51784 12.8122 8.59207 12.8864C8.6663 12.9607 8.70801 13.0614 8.70801 13.1663C8.70801 13.2713 8.6663 13.372 8.59207 13.4462C8.51784 13.5205 8.41716 13.5622 8.31217 13.5622H5.54134C5.43636 13.5622 5.33568 13.5205 5.26144 13.4462C5.18721 13.372 5.14551 13.2713 5.14551 13.1663ZM13.8538 11.9788C13.224 11.9788 12.6199 12.2291 12.1745 12.6745C11.7291 13.1199 11.4788 13.724 11.4788 14.3538C11.4788 14.9837 11.7291 15.5878 12.1745 16.0332C12.6199 16.4786 13.224 16.7288 13.8538 16.7288C14.4837 16.7288 15.0878 16.4786 15.5332 16.0332C15.9786 15.5878 16.2288 14.9837 16.2288 14.3538C16.2288 13.724 15.9786 13.1199 15.5332 12.6745C15.0878 12.2291 14.4837 11.9788 13.8538 11.9788ZM10.6872 14.3538C10.6872 13.514 11.0208 12.7085 11.6147 12.1147C12.2085 11.5208 13.014 11.1872 13.8538 11.1872C14.6937 11.1872 15.4991 11.5208 16.093 12.1147C16.6869 12.7085 17.0205 13.514 17.0205 14.3538C17.0205 15.1937 16.6869 15.9991 16.093 16.593C15.4991 17.1869 14.6937 17.5205 13.8538 17.5205C13.014 17.5205 12.2085 17.1869 11.6147 16.593C11.0208 15.9991 10.6872 15.1937 10.6872 14.3538ZM15.1728 13.3809C15.2096 13.4177 15.2389 13.4613 15.2588 13.5094C15.2788 13.5575 15.289 13.6091 15.289 13.6611C15.289 13.7132 15.2788 13.7648 15.2588 13.8128C15.2389 13.8609 15.2096 13.9046 15.1728 13.9414L13.5071 15.6063L12.5349 14.6341C12.4981 14.5973 12.4689 14.5537 12.449 14.5057C12.429 14.4576 12.4188 14.4061 12.4187 14.3541C12.4187 14.3021 12.4289 14.2506 12.4488 14.2025C12.4686 14.1545 12.4978 14.1108 12.5345 14.074C12.6088 13.9997 12.7095 13.9579 12.8145 13.9578C12.8665 13.9578 12.918 13.968 12.9661 13.9878C13.0141 14.0077 13.0578 14.0368 13.0946 14.0736L13.5071 14.4868L14.613 13.3809C14.6873 13.3067 14.7879 13.265 14.8929 13.265C14.9979 13.265 15.0985 13.3067 15.1728 13.3809Z" fill="black"/>
</svg>
