<svg width="35" height="36" viewBox="0 0 35 36" fill="none" xmlns="http://www.w3.org/2000/svg">
<g clip-path="url(#clip0_7089_28966)">
<path d="M0 0.5H34.9869V35.4869H0V0.5Z" fill="black"/>
<path d="M19.3695 6.14268L19.3603 11.3873L19.351 16.632L18.9195 15.4145L18.9187 15.4122L18.3612 27.0883C18.9094 28.6365 19.2031 29.4629 19.2063 29.4662C19.2106 29.4706 19.5231 29.4895 19.9006 29.5082C21.0444 29.5649 22.4619 29.6865 23.5372 29.8202C23.7862 29.8511 24.0004 29.8669 24.0134 29.8553C24.0262 29.8438 24.0332 24.5037 24.029 17.9885L24.021 6.14268H19.3695ZM10.9561 6.12695V17.9848C10.9561 24.5067 10.9625 29.8492 10.9703 29.857C10.9781 29.8647 11.3819 29.8266 11.8678 29.7722C12.3536 29.7178 13.0252 29.6501 13.36 29.6218C13.8735 29.5785 15.4067 29.4799 15.5841 29.4788C15.6358 29.4785 15.6391 29.2122 15.6466 24.4564L15.6545 19.4342L16.0254 20.4838L16.1567 20.8547L16.7141 9.18152L16.5226 8.64012C16.2365 7.83093 15.9501 7.02183 15.6636 6.21281L15.6328 6.12695H10.9561Z" fill="#B1060F" stroke="black" stroke-width="0.18475"/>
<path d="M10.9561 6.12695V12.7831L15.645 25.2212C15.6455 24.9362 15.6461 24.7822 15.6466 24.4564L15.6545 19.4342L16.0254 20.4838C18.0904 26.3269 19.1998 29.4596 19.2063 29.4662C19.2106 29.4706 19.5231 29.4895 19.9006 29.5082C21.0444 29.5649 22.4619 29.6865 23.5372 29.8202C23.7862 29.8511 24.0004 29.8669 24.0134 29.8553C24.0221 29.8474 24.028 27.2289 24.0295 23.5352L19.3625 10.1176L19.3603 11.3873L19.351 16.632L18.9195 15.4145C18.4979 14.2249 18.2164 13.4294 16.5226 8.64012C16.2365 7.83093 15.9501 7.02183 15.6636 6.21281L15.6328 6.12695H10.9561Z" fill="url(#paint0_radial_7089_28966)"/>
<path d="M10.9561 6.12695L15.6544 19.4402V19.4342L16.0253 20.4838C18.0903 26.3269 19.1996 29.4596 19.2062 29.4662C19.2104 29.4706 19.523 29.4895 19.9005 29.5082C21.0443 29.5649 22.4618 29.6865 23.5371 29.8202C23.7848 29.8509 23.9978 29.8667 24.0128 29.8554L19.3507 16.6297V16.632L18.9192 15.4145C18.4976 14.2249 18.2161 13.4294 16.5223 8.64012C16.0667 7.35223 15.6802 6.26012 15.6633 6.21281L15.6325 6.12695H10.9561Z" fill="#E50914"/>
<path d="M19.3695 6.14268L19.3603 11.3873L19.351 16.632L18.9195 15.4145L18.9187 15.4122L18.3612 27.0883C18.9094 28.6365 19.2031 29.4629 19.2063 29.4662C19.2106 29.4706 19.5231 29.4895 19.9006 29.5082C21.0444 29.5649 22.4619 29.6865 23.5372 29.8202C23.7862 29.8511 24.0004 29.8669 24.0134 29.8553C24.0262 29.8438 24.0332 24.5037 24.029 17.9885L24.021 6.14268H19.3695ZM10.9561 6.12695V17.9848C10.9561 24.5067 10.9625 29.8492 10.9703 29.857C10.9781 29.8647 11.3819 29.8266 11.8678 29.7722C12.3536 29.7178 13.0252 29.6501 13.36 29.6218C13.8735 29.5785 15.4067 29.4799 15.5841 29.4788C15.6358 29.4785 15.6391 29.2122 15.6466 24.4564L15.6545 19.4342L16.0254 20.4838L16.1567 20.8547L16.7141 9.18152L16.5226 8.64012C16.2365 7.83093 15.9501 7.02183 15.6636 6.21281L15.6328 6.12695H10.9561Z" fill="#B1060F" stroke="black" stroke-width="0.18475"/>
<path d="M10.9561 6.12695V12.7831L15.645 25.2212C15.6455 24.9362 15.6461 24.7822 15.6466 24.4564L15.6545 19.4342L16.0254 20.4838C18.0904 26.3269 19.1998 29.4596 19.2063 29.4662C19.2106 29.4706 19.5231 29.4895 19.9006 29.5082C21.0444 29.5649 22.4619 29.6865 23.5372 29.8202C23.7862 29.8511 24.0004 29.8669 24.0134 29.8553C24.0221 29.8474 24.028 27.2289 24.0295 23.5352L19.3625 10.1176L19.3603 11.3873L19.351 16.632L18.9195 15.4145C18.4979 14.2249 18.2164 13.4294 16.5226 8.64012C16.2365 7.83093 15.9501 7.02183 15.6636 6.21281L15.6328 6.12695H10.9561Z" fill="url(#paint1_radial_7089_28966)"/>
<path d="M10.9561 6.12695L15.6544 19.4402V19.4342L16.0253 20.4838C18.0903 26.3269 19.1996 29.4596 19.2062 29.4662C19.2104 29.4706 19.523 29.4895 19.9005 29.5082C21.0443 29.5649 22.4618 29.6865 23.5371 29.8202C23.7848 29.8509 23.9978 29.8667 24.0128 29.8554L19.3507 16.6297V16.632L18.9192 15.4145C18.4976 14.2249 18.2161 13.4294 16.5223 8.64012C16.0667 7.35223 15.6802 6.26012 15.6633 6.21281L15.6325 6.12695H10.9561Z" fill="#E50914"/>
</g>
<defs>
<radialGradient id="paint0_radial_7089_28966" cx="0" cy="0" r="1" gradientUnits="userSpaceOnUse" gradientTransform="translate(642.927 649.713) scale(920.868 920.877)">
<stop/>
<stop offset="1" stop-opacity="0"/>
</radialGradient>
<radialGradient id="paint1_radial_7089_28966" cx="0" cy="0" r="1" gradientUnits="userSpaceOnUse" gradientTransform="translate(642.927 649.713) scale(920.868 920.877)">
<stop/>
<stop offset="1" stop-opacity="0"/>
</radialGradient>
<clipPath id="clip0_7089_28966">
<rect y="0.5" width="35" height="35" rx="8.11" fill="white"/>
</clipPath>
</defs>
</svg>
