<svg width="13" height="20" viewBox="0 0 13 20" fill="none" xmlns="http://www.w3.org/2000/svg">
<path d="M0.475586 2.77029C0.475586 2.13113 0.729489 1.51816 1.18144 1.06621C1.63339 0.614255 2.24637 0.360352 2.88552 0.360352L10.1153 0.360352C10.7545 0.360352 11.3675 0.614255 11.8194 1.06621C12.2714 1.51816 12.5253 2.13113 12.5253 2.77029V17.2299C12.5253 17.8691 12.2714 18.482 11.8194 18.934C11.3675 19.386 10.7545 19.6399 10.1153 19.6399H2.88552C2.24637 19.6399 1.63339 19.386 1.18144 18.934C0.729489 18.482 0.475586 17.8691 0.475586 17.2299V2.77029ZM7.7054 16.0249C7.7054 15.7054 7.57845 15.3989 7.35247 15.1729C7.1265 14.9469 6.82001 14.82 6.50043 14.82C6.18085 14.82 5.87436 14.9469 5.64839 15.1729C5.42241 15.3989 5.29546 15.7054 5.29546 16.0249C5.29546 16.3445 5.42241 16.651 5.64839 16.877C5.87436 17.103 6.18085 17.2299 6.50043 17.2299C6.82001 17.2299 7.1265 17.103 7.35247 16.877C7.57845 16.651 7.7054 16.3445 7.7054 16.0249Z" fill="#6A3AF3"/>
</svg>
