<svg width="23" height="23" viewBox="0 0 23 23" fill="none" xmlns="http://www.w3.org/2000/svg">
<g clip-path="url(#clip0_7089_28951)">
<path d="M11.0346 22.5776C11.0339 22.5776 11.0339 22.5776 11.0346 22.5776C8.14051 22.5776 5.42516 21.455 3.38741 19.4173C1.34966 17.3795 0.226562 14.6631 0.226562 11.7701C0.226562 8.87709 1.34911 6.16174 3.38741 4.12399C5.42681 2.08404 8.14326 0.960938 11.0352 0.960938C13.9254 0.960938 16.6413 2.08459 18.6813 4.12454C22.897 8.34084 22.897 15.2015 18.6813 19.4178C16.6424 21.455 13.9271 22.5776 11.0346 22.5776ZM11.0352 1.51094C8.29011 1.51094 5.71226 2.57739 3.77626 4.51284C1.84191 6.44719 0.776563 9.02449 0.776563 11.7701C0.776563 14.5157 1.84191 17.0941 3.77626 19.0284C5.71061 20.9628 8.28791 22.0276 11.0341 22.0276C13.7797 22.0276 16.3575 20.9622 18.2919 19.0284C22.2931 15.0266 22.2931 8.51519 18.2919 4.51284C16.3559 2.57684 13.7786 1.51094 11.0352 1.51094Z" fill="#3A9B7A"/>
<path d="M9.4784 20.3997C9.42927 20.3997 9.37739 20.3918 9.32275 20.376C9.20095 20.3359 9.09781 20.253 9.03239 20.1427C8.96698 20.0324 8.94371 19.9021 8.9669 19.776L10.2858 13.061L7.88175 12.3867C7.80593 12.3653 7.73594 12.327 7.67704 12.2747C7.61814 12.2224 7.57187 12.1574 7.5417 12.0846C7.51153 12.0118 7.49824 11.9331 7.50284 11.8545C7.50744 11.7758 7.52981 11.6993 7.56825 11.6305L12.1008 3.40853C12.1629 3.29997 12.2614 3.21686 12.3788 3.17389C12.4963 3.13091 12.6252 3.13084 12.7427 3.17368C12.8596 3.21655 12.957 3.30036 13.0169 3.40959C13.0768 3.51881 13.095 3.64604 13.0683 3.76768L11.888 9.60318L14.1716 10.1466C14.3311 10.19 14.4565 10.2929 14.5225 10.4309C14.5564 10.5028 14.5735 10.5815 14.5725 10.661C14.5714 10.7405 14.5522 10.8187 14.5164 10.8896L9.94645 20.1093C9.90322 20.1965 9.8365 20.2699 9.7538 20.3212C9.67111 20.3725 9.57572 20.3997 9.4784 20.3997ZM12.493 3.83588L8.04895 11.8972L10.6785 12.6001C10.8166 12.6386 10.9018 12.7772 10.8738 12.918L9.54605 19.6759L14.0236 10.6432L11.5008 10.0767C11.4313 10.0603 11.3709 10.0175 11.3324 9.95734C11.2939 9.89719 11.2803 9.82442 11.2945 9.75443L12.493 3.83588Z" fill="#3A9B7A"/>
</g>
<defs>
<clipPath id="clip0_7089_28951">
<rect width="22" height="22" fill="white" transform="translate(0.0371094 0.769531)"/>
</clipPath>
</defs>
</svg>
