<svg width="21" height="20" viewBox="0 0 21 20" fill="none" xmlns="http://www.w3.org/2000/svg">
<path fill-rule="evenodd" clip-rule="evenodd" d="M5.5 2C4.96957 2 4.46086 2.21071 4.08579 2.58579C3.71071 2.96086 3.5 3.46957 3.5 4V18L7 16L10.5 18L14 16L17.5 18V4C17.5 3.46957 17.2893 2.96086 16.9142 2.58579C16.5391 2.21071 16.0304 2 15.5 2H5.5ZM8 5C7.60218 5 7.22064 5.15804 6.93934 5.43934C6.65804 5.72064 6.5 6.10218 6.5 6.5C6.5 6.89782 6.65804 7.27936 6.93934 7.56066C7.22064 7.84196 7.60218 8 8 8C8.39782 8 8.77936 7.84196 9.06066 7.56066C9.34196 7.27936 9.5 6.89782 9.5 6.5C9.5 6.10218 9.34196 5.72064 9.06066 5.43934C8.77936 5.15804 8.39782 5 8 5ZM14.207 5.293C14.0195 5.10553 13.7652 5.00021 13.5 5.00021C13.2348 5.00021 12.9805 5.10553 12.793 5.293L6.793 11.293C6.69749 11.3852 6.62131 11.4956 6.5689 11.6176C6.51649 11.7396 6.4889 11.8708 6.48775 12.0036C6.4866 12.1364 6.5119 12.2681 6.56218 12.391C6.61246 12.5139 6.68671 12.6255 6.7806 12.7194C6.8745 12.8133 6.98615 12.8875 7.10905 12.9378C7.23194 12.9881 7.36362 13.0134 7.4964 13.0123C7.62918 13.0111 7.7604 12.9835 7.8824 12.9311C8.00441 12.8787 8.11475 12.8025 8.207 12.707L14.207 6.707C14.3945 6.51947 14.4998 6.26516 14.4998 6C14.4998 5.73484 14.3945 5.48053 14.207 5.293ZM13 10C12.6022 10 12.2206 10.158 11.9393 10.4393C11.658 10.7206 11.5 11.1022 11.5 11.5C11.5 11.8978 11.658 12.2794 11.9393 12.5607C12.2206 12.842 12.6022 13 13 13C13.3978 13 13.7794 12.842 14.0607 12.5607C14.342 12.2794 14.5 11.8978 14.5 11.5C14.5 11.1022 14.342 10.7206 14.0607 10.4393C13.7794 10.158 13.3978 10 13 10Z" fill="#6A22B2"/>
</svg>
