<svg width="17" height="16" viewBox="0 0 17 16" fill="none" xmlns="http://www.w3.org/2000/svg">
<g clip-path="url(#clip0_7089_28933)">
<path d="M3 13.5C3 13.3674 3.05268 13.2402 3.14645 13.1464C3.24021 13.0527 3.36739 13 3.5 13H13.5C13.6326 13 13.7598 13.0527 13.8536 13.1464C13.9473 13.2402 14 13.3674 14 13.5C14 13.6326 13.9473 13.7598 13.8536 13.8536C13.7598 13.9473 13.6326 14 13.5 14H3.5C3.36739 14 3.24021 13.9473 3.14645 13.8536C3.05268 13.7598 3 13.6326 3 13.5ZM14.491 3L14.515 3.001C14.7017 3.01468 14.8842 3.06318 15.053 3.144C15.1743 3.2006 15.2785 3.28822 15.355 3.398C15.422 3.498 15.5 3.675 15.5 4V9.991L15.499 10.015C15.4853 10.2017 15.4368 10.3842 15.356 10.553C15.2994 10.6743 15.2118 10.7785 15.102 10.855C15.002 10.922 14.825 11 14.5 11H2.509L2.485 10.999C2.29832 10.9853 2.11584 10.9368 1.947 10.856C1.82573 10.7994 1.72155 10.7118 1.645 10.602C1.578 10.502 1.5 10.325 1.5 10V4.009L1.501 3.985C1.51468 3.79831 1.56318 3.61584 1.644 3.447C1.7006 3.32573 1.78822 3.22155 1.898 3.145C1.998 3.078 2.175 3 2.5 3H14.491ZM14.5 2H2.5C0.5 2 0.5 4 0.5 4V10C0.5 12 2.5 12 2.5 12H14.5C16.5 12 16.5 10 16.5 10V4C16.5 2 14.5 2 14.5 2Z" fill="#3A9B7A"/>
</g>
<defs>
<clipPath id="clip0_7089_28933">
<rect width="16" height="16" fill="white" transform="translate(0.5)"/>
</clipPath>
</defs>
</svg>
