<svg xmlns="http://www.w3.org/2000/svg" fill="none" viewBox="0 0.34 135.3 42.52">
<path d="M54 30.3507L57.0733 10.6511H62.4822C63.6121 10.6284 64.7421 10.69 65.8628 10.8354C66.5472 10.9334 67.2113 11.1409 67.8297 11.4501C68.7759 11.9106 69.5626 12.6438 70.0885 13.5553C70.603 14.5348 70.8569 15.6301 70.8261 16.7361C70.837 17.9257 70.5631 19.1007 70.027 20.1628C69.5389 21.1499 68.7895 21.9843 67.8604 22.5753C67.2701 22.9293 66.6185 23.1691 65.9396 23.2821C64.7953 23.4514 63.6387 23.5234 62.4822 23.4973H60.2848L59.1784 30.3507H54ZM61.007 19.3023H61.4988C62.6777 19.4029 63.8635 19.2184 64.9562 18.7645C65.2613 18.573 65.5075 18.3009 65.6676 17.9781C65.8276 17.6554 65.8952 17.2947 65.8628 16.9359C65.8789 16.6334 65.8149 16.3321 65.6773 16.0623C65.5397 15.7925 65.3334 15.5638 65.0791 15.3993C64.3332 15.0062 63.492 14.8305 62.6512 14.8922H61.7139L61.007 19.3023Z" fill="#00555A"/>
<path d="M81.4758 28.5374C80.867 29.2575 80.1197 29.848 79.2784 30.2738C78.4733 30.6619 77.5905 30.8616 76.6968 30.8577C75.964 30.8764 75.2367 30.7269 74.5707 30.4205C73.9047 30.1142 73.3179 29.6592 72.8553 29.0906C71.7946 27.7946 71.2477 26.1538 71.3186 24.4807C71.2428 22.3448 71.9661 20.2573 73.347 18.6261C73.9642 17.884 74.7404 17.2901 75.6182 16.8885C76.4959 16.4868 77.4527 16.2877 78.4178 16.3058C79.2979 16.2913 80.1682 16.4917 80.9533 16.8897C81.7539 17.3326 82.4425 17.9528 82.9663 18.703L83.2736 16.7361H87.8835L85.7168 30.3199H81.2606L81.4758 28.5374ZM76.1744 24.0504C76.1602 24.4346 76.2236 24.8177 76.3609 25.1768C76.4982 25.5359 76.7065 25.8635 76.9734 26.1402C77.2498 26.4121 77.5797 26.6234 77.9421 26.761C78.3045 26.8986 78.6915 26.9593 79.0786 26.9393C79.5311 26.9466 79.9795 26.8508 80.3895 26.6591C80.7995 26.4674 81.1604 26.1849 81.445 25.8329C82.0914 25.0532 82.4303 24.0639 82.3977 23.0516C82.4131 22.6719 82.3501 22.2931 82.2127 21.9389C82.0752 21.5846 81.8662 21.2625 81.5987 20.9925C81.3246 20.7274 80.9992 20.5211 80.6425 20.3863C80.2857 20.2515 79.9052 20.1911 79.5242 20.2088C79.0688 20.2017 78.6175 20.2959 78.2029 20.4846C77.7883 20.6733 77.4208 20.9517 77.1271 21.2999C76.4789 22.0666 76.1393 23.0471 76.1744 24.0504Z" fill="#00555A"/>
<path d="M92.6317 29.6303L88.7594 16.7227H93.7227L94.9059 22.5926C94.9059 22.6694 94.9059 22.7923 94.9981 22.946C95.1505 23.6073 95.2431 24.2811 95.2747 24.959C95.3822 24.6056 95.5052 24.2368 95.6588 23.8372C95.8125 23.4377 96.0123 23.0075 96.2274 22.5311L99.0394 16.7227H104.202L93.6459 36.3147H88.6211L92.6317 29.6303Z" fill="#00555A"/>
<path d="M113.376 30.3505V26.3553H103.926L115.389 10.4512H116.296V24.1272H118.693V26.3553H116.296V30.3505H113.376ZM113.453 17.0433L108.443 24.1272H113.376V18.9948C113.376 18.7336 113.376 18.4263 113.376 18.1036C113.376 17.7809 113.422 17.4121 113.53 17.0433H113.453Z" fill="#00555A"/>
<path d="M121.981 12.0817C121.975 11.8432 122.021 11.6062 122.113 11.3864C122.206 11.1666 122.344 10.9689 122.519 10.8063C122.69 10.6345 122.894 10.4985 123.118 10.4061C123.342 10.3138 123.582 10.267 123.825 10.2685C124.065 10.2608 124.303 10.3033 124.525 10.3933C124.748 10.4833 124.949 10.6187 125.116 10.7909C125.289 10.9572 125.425 11.1581 125.515 11.3805C125.605 11.603 125.647 11.8419 125.638 12.0817C125.646 12.574 125.458 13.0492 125.116 13.4032C124.948 13.5739 124.746 13.7083 124.524 13.7982C124.302 13.888 124.064 13.9314 123.825 13.9256C123.582 13.9271 123.342 13.8803 123.118 13.7879C122.894 13.6956 122.69 13.5596 122.519 13.3878C122.344 13.2188 122.206 13.0155 122.114 12.7908C122.021 12.5661 121.976 12.3247 121.981 12.0817ZM122.365 30.3522V17.5982H125.285V30.3522H122.365Z" fill="#00555A"/>
<path d="M130.138 30.3537V20.1658H127.91V17.5996H130.138V12.7285H133.058V17.5535H135.301V20.1197H133.058V30.3076L130.138 30.3537Z" fill="#00555A"/>
<path d="M38.582 13.1562L46.7043 15.4748C42.3995 23.9294 40.9744 30.0728 38.582 42.5368V13.1562Z" fill="#00555A"/>
<path d="M12.0039 11.9511V6.70117H23.449C24.6304 6.70117 25.5829 7.87521 25.5829 9.32246C25.5829 10.7992 24.6304 11.9511 23.449 11.9511H12.0039Z" fill="#00555A"/>
<path d="M12.0039 18.9657V13.7305H30.1683C31.2537 13.7305 32.1324 14.9045 32.1324 16.3591C32.1324 17.8359 31.2537 18.9878 30.1683 18.9878L12.0039 18.9657Z" fill="#00555A"/>
<path d="M12.0039 25.9722V20.7148H26.4985C27.6799 20.7148 28.6325 21.8889 28.6325 23.3435C28.6325 24.8203 27.6799 25.9722 26.4985 25.9722H12.0039Z" fill="#00555A"/>
<path d="M18.136 27.4199H12V36.4947H18.136V27.4199Z" fill="#00555A"/>
<path d="M38.582 7.08594L45.2275 8.72517C41.7497 17.5859 40.4871 24.7556 38.582 37.7735V7.08594Z" fill="#00555A"/>
<path d="M12.5748 0.335938L10.8765 1.93824H36.9786V41.2575H1.6023V12.6597L0 14.358V42.8599H38.5735V0.335938H12.5748Z" fill="#00555A"/>
</svg>