<svg width="24" height="22" viewBox="0 0 24 22" fill="none" xmlns="http://www.w3.org/2000/svg">
<path d="M19.1445 6.64844L23.142 7.78952C21.0233 11.9505 20.322 14.974 19.1445 21.1082V6.64844Z" fill="#D3FFB4"/>
<path d="M6.06445 6.05644V3.47266H11.6972C12.2786 3.47266 12.7474 4.05046 12.7474 4.76273C12.7474 5.48954 12.2786 6.05644 11.6972 6.05644H6.06445Z" fill="#D3FFB4"/>
<path d="M6.06445 9.50816V6.93164H15.0041C15.5383 6.93164 15.9708 7.50945 15.9708 8.22535C15.9708 8.95215 15.5383 9.51906 15.0041 9.51906L6.06445 9.50816Z" fill="#D3FFB4"/>
<path d="M6.06445 12.9585V10.3711H13.198C13.7795 10.3711 14.2483 10.9489 14.2483 11.6648C14.2483 12.3916 13.7795 12.9585 13.198 12.9585H6.06445Z" fill="#D3FFB4"/>
<path d="M9.08042 13.6699H6.06055V18.1361H9.08042V13.6699Z" fill="#D3FFB4"/>
<path d="M19.1445 3.66211L22.4151 4.46886C20.7035 8.82969 20.0821 12.3583 19.1445 18.7651V3.66211Z" fill="#D3FFB4"/>
<path d="M6.34498 0.339844L5.50915 1.12843H18.3554V20.4796H0.944826V6.40502L0.15625 7.24085V21.2682H19.1404V0.339844H6.34498Z" fill="#D3FFB4"/>
</svg>
