<svg width="62" height="57" viewBox="0 0 62 57" fill="none" xmlns="http://www.w3.org/2000/svg">
<path d="M51.2188 17.293L62.0015 20.3709C56.2866 31.5948 54.3947 39.7504 51.2188 56.297V17.293Z" fill="#00555A"/>
<path d="M15.9375 15.6922V8.72266H31.1313C32.6997 8.72266 33.9642 10.2812 33.9642 12.2025C33.9642 14.163 32.6997 15.6922 31.1313 15.6922H15.9375Z" fill="#00555A"/>
<path d="M15.9375 25.0046V18.0547H40.0515C41.4925 18.0547 42.659 19.6133 42.659 21.5444C42.659 23.5049 41.4925 25.034 40.0515 25.034L15.9375 25.0046Z" fill="#00555A"/>
<path d="M15.9375 34.3075V27.3281H35.1797C36.7481 27.3281 38.0127 28.8867 38.0127 30.8178C38.0127 32.7783 36.7481 34.3075 35.1797 34.3075H15.9375Z" fill="#00555A"/>
<path d="M24.0755 36.2285H15.9297V48.2757H24.0755V36.2285Z" fill="#00555A"/>
<path d="M51.2188 9.23438L60.041 11.4105C55.424 23.1735 53.7478 32.6917 51.2188 49.9734V9.23438Z" fill="#00555A"/>
<path d="M16.6936 0.273438L14.439 2.40057H49.0907V54.5987H2.12712V16.6337L0 18.8883V56.7258H51.208V0.273438H16.6936Z" fill="#00555A"/>
</svg>
