<svg width="32" height="30" viewBox="0 0 32 30" fill="none" xmlns="http://www.w3.org/2000/svg">
<path d="M26.4346 8.94629L31.9999 10.5349C29.0503 16.328 28.0738 20.5374 26.4346 29.0777V8.94629Z" fill="#1B1B1B"/>
<path d="M8.22852 8.11872V4.52148H16.0706C16.8801 4.52148 17.5328 5.32593 17.5328 6.31757C17.5328 7.32945 16.8801 8.11872 16.0706 8.11872H8.22852Z" fill="#1B1B1B"/>
<path d="M8.22852 12.925V9.33789H20.6746C21.4184 9.33789 22.0205 10.1423 22.0205 11.139C22.0205 12.1509 21.4184 12.9402 20.6746 12.9402L8.22852 12.925Z" fill="#1B1B1B"/>
<path d="M8.22852 17.7273V14.125H18.1601C18.9696 14.125 19.6223 14.9294 19.6223 15.9261C19.6223 16.938 18.9696 17.7273 18.1601 17.7273H8.22852Z" fill="#1B1B1B"/>
<path d="M12.429 18.7197H8.22461V24.9377H12.429V18.7197Z" fill="#1B1B1B"/>
<path d="M26.4346 4.78516L30.988 5.90835C28.6051 11.9796 27.7399 16.8923 26.4346 25.8121V4.78516Z" fill="#1B1B1B"/>
<path d="M8.61715 0.163086L7.45347 1.26098H25.3385V28.2023H1.09886V8.60724L0.000976562 9.7709V29.3002H26.4313V0.163086H8.61715Z" fill="#1B1B1B"/>
</svg>
