<svg width="211" height="43" viewBox="0 0 211 43" fill="none" xmlns="http://www.w3.org/2000/svg">
<path d="M54 30.253L57.0733 10.5534H62.4822C63.6121 10.5307 64.7421 10.5924 65.8628 10.7378C66.5472 10.8357 67.2113 11.0433 67.8297 11.3524C68.7759 11.8129 69.5626 12.5461 70.0885 13.4576C70.603 14.4371 70.8569 15.5325 70.8261 16.6385C70.837 17.8281 70.5631 19.0031 70.027 20.0651C69.5389 21.0522 68.7895 21.8866 67.8604 22.4777C67.2701 22.8317 66.6185 23.0715 65.9396 23.1845C64.7953 23.3538 63.6387 23.4257 62.4822 23.3996H60.2848L59.1784 30.253H54ZM61.007 19.2046H61.4988C62.6777 19.3053 63.8635 19.1208 64.9562 18.6668C65.2613 18.4754 65.5075 18.2032 65.6676 17.8805C65.8276 17.5577 65.8952 17.197 65.8628 16.8382C65.8789 16.5358 65.8149 16.2344 65.6773 15.9646C65.5397 15.6948 65.3334 15.4661 65.0791 15.3016C64.3332 14.9086 63.492 14.7329 62.6512 14.7945H61.7139L61.007 19.2046Z" fill="white"/>
<path d="M81.4758 28.4397C80.867 29.1599 80.1197 29.7504 79.2784 30.1761C78.4733 30.5642 77.5905 30.7639 76.6968 30.76C75.964 30.7788 75.2367 30.6292 74.5707 30.3229C73.9047 30.0165 73.3179 29.5616 72.8553 28.9929C71.7946 27.6969 71.2477 26.0562 71.3186 24.383C71.2428 22.2471 71.9661 20.1597 73.347 18.5285C73.9642 17.7863 74.7404 17.1925 75.6182 16.7908C76.4959 16.3892 77.4527 16.1901 78.4178 16.2082C79.2979 16.1936 80.1682 16.3941 80.9533 16.7921C81.7539 17.2349 82.4425 17.8552 82.9663 18.6053L83.2736 16.6384H87.8835L85.7168 30.2222H81.2606L81.4758 28.4397ZM76.1744 23.9528C76.1602 24.3369 76.2236 24.72 76.3609 25.0791C76.4982 25.4382 76.7065 25.7659 76.9734 26.0426C77.2498 26.3144 77.5797 26.5258 77.9421 26.6633C78.3045 26.8009 78.6915 26.8616 79.0786 26.8416C79.5311 26.849 79.9795 26.7532 80.3895 26.5615C80.7995 26.3698 81.1604 26.0872 81.445 25.7353C82.0914 24.9555 82.4303 23.9663 82.3977 22.954C82.4131 22.5743 82.3501 22.1955 82.2127 21.8412C82.0752 21.4869 81.8662 21.1648 81.5987 20.8949C81.3246 20.6297 80.9992 20.4234 80.6425 20.2886C80.2857 20.1539 79.9052 20.0935 79.5242 20.1112C79.0688 20.104 78.6175 20.1982 78.2029 20.3869C77.7883 20.5756 77.4208 20.8541 77.1271 21.2022C76.4789 21.9689 76.1393 22.9494 76.1744 23.9528Z" fill="white"/>
<path d="M92.6317 29.5327L88.7594 16.625H93.7227L94.9059 22.4949C94.9059 22.5717 94.9059 22.6947 94.9981 22.8483C95.1505 23.5097 95.2431 24.1834 95.2747 24.8613C95.3822 24.5079 95.5052 24.1391 95.6588 23.7396C95.8125 23.3401 96.0123 22.9098 96.2274 22.4335L99.0394 16.625H104.202L93.6459 36.217H88.6211L92.6317 29.5327Z" fill="white"/>
<path d="M113.376 30.2529V26.2576H103.926L115.389 10.3535H116.296V24.0295H118.693V26.2576H116.296V30.2529H113.376ZM113.453 16.9457L108.443 24.0295H113.376V18.8972C113.376 18.636 113.376 18.3286 113.376 18.0059C113.376 17.6832 113.422 17.3144 113.53 16.9457H113.453Z" fill="white"/>
<path d="M121.981 11.984C121.975 11.7455 122.021 11.5086 122.113 11.2887C122.206 11.0689 122.344 10.8712 122.519 10.7086C122.69 10.5368 122.894 10.4008 123.118 10.3085C123.342 10.2162 123.582 10.1694 123.825 10.1708C124.065 10.1632 124.303 10.2057 124.525 10.2956C124.748 10.3856 124.949 10.521 125.116 10.6932C125.289 10.8595 125.425 11.0605 125.515 11.2829C125.605 11.5053 125.647 11.7442 125.638 11.984C125.646 12.4763 125.458 12.9516 125.116 13.3055C124.948 13.4762 124.746 13.6107 124.524 13.7005C124.302 13.7904 124.064 13.8338 123.825 13.828C123.582 13.8294 123.342 13.7826 123.118 13.6903C122.894 13.5979 122.69 13.4619 122.519 13.2901C122.344 13.1211 122.206 12.9179 122.114 12.6932C122.021 12.4684 121.976 12.227 121.981 11.984ZM122.365 30.2545V17.5005H125.285V30.2545H122.365Z" fill="white"/>
<path d="M130.138 30.256V20.0681H127.91V17.502H130.138V12.6309H133.058V17.4559H135.301V20.022H133.058V30.2099L130.138 30.256Z" fill="white"/>
<path d="M38.582 13.0586L46.7043 15.3771C42.3995 23.8317 40.9744 29.9751 38.582 42.4392V13.0586Z" fill="white"/>
<path d="M12.0039 11.8535V6.60352H23.449C24.6304 6.60352 25.5829 7.77755 25.5829 9.2248C25.5829 10.7016 24.6304 11.8535 23.449 11.8535H12.0039Z" fill="white"/>
<path d="M12.0039 18.868V13.6328H30.1683C31.2537 13.6328 32.1324 14.8069 32.1324 16.2615C32.1324 17.7383 31.2537 18.8902 30.1683 18.8902L12.0039 18.868Z" fill="white"/>
<path d="M12.0039 25.8745V20.6172H26.4985C27.6799 20.6172 28.6325 21.7912 28.6325 23.2459C28.6325 24.7226 27.6799 25.8745 26.4985 25.8745H12.0039Z" fill="white"/>
<path d="M18.136 27.3223H12V36.3971H18.136V27.3223Z" fill="white"/>
<path d="M38.582 6.98828L45.2275 8.62751C41.7497 17.4882 40.4871 24.658 38.582 37.6758V6.98828Z" fill="white"/>
<path d="M12.5748 0.238281L10.8765 1.84059H36.9786V41.1599H1.6023V12.562L0 14.2603V42.7622H38.5735V0.238281H12.5748Z" fill="white"/>
</svg>
