<svg width="16" height="15" viewBox="0 0 16 15" fill="none" xmlns="http://www.w3.org/2000/svg">
<path d="M8.70835 8.20835C8.31168 8.60501 7.68126 8.60501 7.29168 8.21543V8.20835C6.9021 7.81876 6.9021 7.18835 7.29168 6.79876V6.79168C7.68126 6.4021 8.31168 6.4021 8.70126 6.79168H8.70835C9.09793 7.18126 9.09793 7.81876 8.70835 8.20835ZM8.00001 3.25001L9.50168 4.75168L11.2725 2.98085L9.00585 0.71418C8.45335 0.16168 7.55376 0.16168 7.00126 0.71418L4.7346 2.98085L6.50543 4.75168L8.00001 3.25001ZM3.75001 7.50001L5.25168 5.99835L3.48085 4.22751L1.21418 6.49418C0.66168 7.04668 0.66168 7.94626 1.21418 8.49876L3.48085 10.7654L5.25168 8.9946L3.75001 7.50001ZM12.25 7.50001L10.7483 9.00168L12.5192 10.7725L14.7858 8.50585C15.3383 7.95335 15.3383 7.05376 14.7858 6.50126L12.5192 4.2346L10.7483 6.00543L12.25 7.50001ZM8.00001 11.75L6.49835 10.2483L4.72751 12.0192L6.99418 14.2858C7.54668 14.8383 8.44626 14.8383 8.99876 14.2858L11.2654 12.0192L9.4946 10.2483L8.00001 11.75Z" fill="#1B1B1B"/>
</svg>
