<svg width="19" height="22" viewBox="0 0 19 22" fill="none" xmlns="http://www.w3.org/2000/svg">
<path d="M18.7807 15.6071L17.8763 14.6931C17.5363 14.3535 17.2668 13.9497 17.0833 13.505C16.8999 13.0603 16.8061 12.5835 16.8074 12.1022V8.79663C16.8074 7.93023 16.6373 7.07233 16.3067 6.27188C15.9762 5.47144 15.4917 4.74414 14.8809 4.13151C14.2701 3.51888 13.5449 3.03291 12.7469 2.70136C11.9489 2.36981 11.0935 2.19916 10.2297 2.19916V0H8.76343V2.19916C7.01892 2.19916 5.34585 2.89424 4.11229 4.13151C2.87873 5.36878 2.18572 7.04687 2.18572 8.79663V12.1091C2.18705 12.5904 2.09327 13.0671 1.9098 13.5118C1.72634 13.9565 1.45683 14.3604 1.11684 14.7L0.212406 15.6071C0.144983 15.6748 0.0915221 15.7552 0.0550769 15.8437C0.0186316 15.9321 -8.37417e-05 16.0269 2.81668e-07 16.1226V18.3217C-8.15854e-06 18.5156 0.0762921 18.7016 0.212304 18.8393C0.348316 18.977 0.533038 19.0553 0.726289 19.0571H6.24198C6.32469 19.8642 6.7029 20.6119 7.30344 21.1555C7.90399 21.6991 8.6842 22 9.49315 22C10.3021 22 11.0823 21.6991 11.6829 21.1555C12.2834 20.6119 12.6616 19.8642 12.7443 19.0571H18.2669C18.4613 19.0571 18.6478 18.9796 18.7853 18.8417C18.9228 18.7038 19 18.5167 19 18.3217V16.1226C18.9976 15.9285 18.9188 15.7432 18.7807 15.6071ZM9.49657 20.5278C9.07619 20.527 8.66889 20.381 8.34319 20.1144C8.0175 19.8478 7.79328 19.4769 7.70826 19.0639H11.2917C11.2065 19.478 10.9813 19.8499 10.6542 20.1166C10.327 20.3833 9.91814 20.5286 9.49657 20.5278ZM17.5337 17.5933H1.45943V16.4318L2.14461 15.7446C2.6215 15.2693 2.99967 14.7039 3.25724 14.081C3.5148 13.4582 3.64665 12.7903 3.64515 12.116V8.79663C3.64964 7.43614 4.18882 6.1323 5.14569 5.16802C5.61955 4.6897 6.18328 4.31039 6.80427 4.05205C7.42525 3.79371 8.09115 3.66146 8.76343 3.66297H10.2229C11.5803 3.66297 12.8822 4.20384 13.842 5.16658C14.8019 6.12933 15.3411 7.4351 15.3411 8.79663V12.1091C15.3396 12.7834 15.4715 13.4513 15.7291 14.0742C15.9866 14.697 16.3648 15.2624 16.8417 15.7377L17.5269 16.4249L17.5337 17.5933Z" fill="#1B1B1B"/>
</svg>
