<svg width="25" height="24" viewBox="0 0 25 24" fill="none" xmlns="http://www.w3.org/2000/svg">
<path d="M12.2837 12.1216C11.1203 13.1506 9.54955 14.0159 7.82075 14.0159C4.23587 14.0159 1.33008 11.3006 1.33008 7.9508C1.33008 4.60099 4.23587 1.88574 7.82075 1.88574C9.55133 1.88574 11.1238 2.51864 12.2872 3.54986" stroke="white" stroke-width="1.89235" stroke-linecap="round" stroke-linejoin="round"/>
<path d="M21.4587 12.121C22.5605 11.0339 23.236 9.56623 23.236 7.9508C23.236 4.60099 20.3302 1.88574 16.7454 1.88574C13.1605 1.88574 10.2547 4.60099 10.2547 7.95025C10.2547 9.56678 11.1812 11.0345 12.2837 12.1216C13.3849 13.2081 14.3114 14.6759 14.3114 16.2902C14.3114 19.64 11.4056 22.3552 7.82075 22.3552C4.23587 22.3552 1.33008 19.64 1.33008 16.2902C1.33008 14.6736 2.00679 13.2048 3.10979 12.1177" stroke="white" stroke-width="1.89235" stroke-linecap="round" stroke-linejoin="round"/>
<path d="M12.2846 12.1221C13.448 11.0919 15.0175 10.2256 16.7463 10.2256C20.3312 10.2256 23.237 12.9408 23.237 16.2906C23.237 19.6405 20.3312 22.3557 16.7463 22.3557C15.0852 22.3577 13.4868 21.7626 12.2822 20.6938" stroke="white" stroke-width="1.89235" stroke-linecap="round" stroke-linejoin="round"/>
</svg>
