<svg width="19" height="21" viewBox="0 0 19 21" fill="none" xmlns="http://www.w3.org/2000/svg">
<path d="M14.5773 18.1447C14.69 18.1447 14.7892 18.1029 14.8747 18.0191C14.9594 17.9347 15.0018 17.8364 15.0018 17.7243V15.2888C15.0018 15.1767 14.9594 15.0784 14.8747 14.994C14.7892 14.9102 14.6897 14.8684 14.5762 14.8684C14.4634 14.8684 14.3646 14.9106 14.2799 14.9951C14.1944 15.0788 14.1516 15.1767 14.1516 15.2888V17.7243C14.1516 17.8364 14.194 17.9347 14.2788 18.0191C14.3643 18.1029 14.4638 18.1447 14.5773 18.1447ZM14.5773 13.9652C14.6959 13.9798 14.7965 13.9426 14.8791 13.8538C14.9609 13.7657 15.0018 13.663 15.0018 13.5458C15.0018 13.4286 14.9587 13.3292 14.8725 13.2477C14.7862 13.1661 14.6856 13.1254 14.5706 13.1254C14.4556 13.1254 14.3569 13.1665 14.2743 13.2488C14.1925 13.331 14.1516 13.4268 14.1516 13.536C14.1516 13.6452 14.194 13.7442 14.2788 13.8331C14.3635 13.9219 14.463 13.9659 14.5773 13.9652ZM2.07531 1.76301V8.71541V8.65207V19.2368V1.76301ZM5.39206 12.1381H8.6668C8.82306 12.1381 8.95426 12.0857 9.06039 11.9808C9.16653 11.876 9.2196 11.746 9.2196 11.5909C9.2196 11.4359 9.16653 11.3063 9.06039 11.2022C8.95426 11.098 8.82306 11.046 8.6668 11.046H5.39206C5.23507 11.046 5.10388 11.0984 4.99848 11.2032C4.89308 11.3081 4.84001 11.4381 4.83927 11.5931C4.83853 11.7482 4.8916 11.8778 4.99848 11.9819C5.10535 12.086 5.23655 12.1381 5.39206 12.1381ZM5.39206 16.5066H7.00843C7.16468 16.5066 7.29588 16.4541 7.40202 16.3493C7.50815 16.2444 7.56122 16.1145 7.56122 15.9594C7.56122 15.8043 7.50815 15.6747 7.40202 15.5706C7.29588 15.4665 7.16468 15.4144 7.00843 15.4144H5.39206C5.23507 15.4144 5.10388 15.4669 4.99848 15.5717C4.89308 15.6765 4.84001 15.8065 4.83927 15.9616C4.83853 16.1167 4.8916 16.2463 4.99848 16.3504C5.10535 16.4545 5.23655 16.5066 5.39206 16.5066ZM2.75635 20.3289C2.24705 20.3289 1.82213 20.1608 1.48161 19.8244C1.14109 19.488 0.970464 19.0683 0.969727 18.5652V2.43466C0.969727 1.93229 1.14035 1.51292 1.48161 1.17655C1.82287 0.840176 2.24778 0.671627 2.75635 0.670898H10.7309C10.9749 0.670898 11.2078 0.718224 11.4297 0.812873C11.6515 0.907523 11.8424 1.03457 12.0024 1.19402L15.9172 5.0612C16.0772 5.21992 16.2054 5.40849 16.302 5.62691C16.3985 5.84533 16.4468 6.07541 16.4468 6.31713V8.26873C16.4468 8.41726 16.3937 8.54176 16.2876 8.64224C16.1815 8.74271 16.0499 8.79295 15.8929 8.79295C15.7359 8.79295 15.6047 8.74089 15.4993 8.63678C15.3939 8.53266 15.3416 8.40307 15.3423 8.24798V6.13147H11.8045C11.5539 6.13147 11.3438 6.04774 11.1743 5.88028C11.0047 5.71282 10.92 5.50532 10.92 5.25778V1.76301H2.75635C2.58609 1.76301 2.42983 1.83291 2.28758 1.9727C2.14533 2.11249 2.07457 2.26648 2.07531 2.43466V18.5652C2.07531 18.7326 2.14607 18.8866 2.28758 19.0272C2.4291 19.1677 2.58499 19.2376 2.75525 19.2368H8.69445C8.8507 19.2368 8.9819 19.2893 9.08803 19.3941C9.19417 19.4989 9.24687 19.6289 9.24613 19.784C9.24539 19.9391 9.19269 20.0687 9.08803 20.1728C8.98337 20.2769 8.85181 20.3289 8.69334 20.3289H2.75635ZM14.5773 11.2557C15.8081 11.2557 16.8529 11.6798 17.7116 12.528C18.5703 13.3762 18.9996 14.4082 18.9996 15.6241C18.9996 16.8415 18.5703 17.8739 17.7116 18.7214C16.8537 19.5688 15.8089 19.9926 14.5773 19.9926C13.3456 19.9926 12.3005 19.5688 11.4418 18.7214C10.5832 17.8739 10.1542 16.8415 10.1549 15.6241C10.1549 14.4082 10.5839 13.3762 11.4418 12.528C12.3005 11.6798 13.3456 11.2557 14.5773 11.2557Z" fill="white"/>
</svg>
