<svg width="29" height="23" viewBox="0 0 29 23" fill="none" xmlns="http://www.w3.org/2000/svg">
<path d="M26.9344 4.38235C27.2913 4.38272 27.6345 4.50902 27.894 4.73545C28.1535 4.96188 28.3097 5.27135 28.3306 5.60063C28.3515 5.92991 28.2356 6.25414 28.0066 6.50708C27.7775 6.76002 27.4526 6.92257 27.0982 6.96153L26.9344 6.97059V19.9118C27.2913 19.9121 27.6345 20.0384 27.894 20.2649C28.1535 20.4913 28.3097 20.8008 28.3306 21.13C28.3515 21.4593 28.2356 21.7836 28.0066 22.0365C27.7775 22.2894 27.4526 22.452 27.0982 22.4909L26.9344 22.5H1.73161C1.37474 22.4996 1.03149 22.3733 0.77199 22.1469C0.512491 21.9205 0.35633 21.611 0.335416 21.2817C0.314502 20.9524 0.430412 20.6282 0.659464 20.3753C0.888516 20.1223 1.21342 19.9598 1.56779 19.9208L1.73161 19.9118V6.97059C1.37474 6.97022 1.03149 6.84392 0.77199 6.61749C0.512491 6.39106 0.35633 6.08159 0.335416 5.75231C0.314502 5.42304 0.430412 5.0988 0.659464 4.84586C0.888516 4.59292 1.21342 4.43037 1.56779 4.39141L1.73161 4.38235H26.9344ZM24.1341 6.97059H4.53192V19.9118H7.33223V10.8529C7.33223 10.5097 7.47975 10.1806 7.74233 9.93786C8.00491 9.69517 8.36104 9.55882 8.73239 9.55882C9.10373 9.55882 9.45987 9.69517 9.72245 9.93786C9.98503 10.1806 10.1325 10.5097 10.1325 10.8529V19.9118H12.9329V10.8529C12.9329 10.5097 13.0804 10.1806 13.3429 9.93786C13.6055 9.69517 13.9617 9.55882 14.333 9.55882C14.7044 9.55882 15.0605 9.69517 15.3231 9.93786C15.5856 10.1806 15.7332 10.5097 15.7332 10.8529V19.9118H18.5335V10.8529C18.5335 10.5097 18.681 10.1806 18.9436 9.93786C19.2062 9.69517 19.5623 9.55882 19.9336 9.55882C20.305 9.55882 20.6611 9.69517 20.9237 9.93786C21.1863 10.1806 21.3338 10.5097 21.3338 10.8529V19.9118H24.1341V6.97059ZM22.7339 0.5C23.1053 0.5 23.4614 0.636344 23.724 0.879039C23.9866 1.12173 24.1341 1.4509 24.1341 1.79412C24.1341 2.13734 23.9866 2.4665 23.724 2.7092C23.4614 2.95189 23.1053 3.08824 22.7339 3.08824H5.93208C5.56073 3.08824 5.2046 2.95189 4.94202 2.7092C4.67944 2.4665 4.53192 2.13734 4.53192 1.79412C4.53192 1.4509 4.67944 1.12173 4.94202 0.879039C5.2046 0.636344 5.56073 0.5 5.93208 0.5H22.7339Z" fill="white"/>
</svg>
