<svg width="17" height="20" viewBox="0 0 17 20" fill="none" xmlns="http://www.w3.org/2000/svg">
<path fill-rule="evenodd" clip-rule="evenodd" d="M2.7502 0.799805C2.1402 0.799805 1.55518 1.04213 1.12385 1.47346C0.692516 1.90479 0.450195 2.48981 0.450195 3.0998V19.1998L4.4752 16.8998L8.5002 19.1998L12.5252 16.8998L16.5502 19.1998V3.0998C16.5502 2.48981 16.3079 1.90479 15.8765 1.47346C15.4452 1.04213 14.8602 0.799805 14.2502 0.799805H2.7502ZM5.6252 4.2498C5.1677 4.2498 4.72894 4.43155 4.40544 4.75505C4.08194 5.07855 3.9002 5.51731 3.9002 5.9748C3.9002 6.4323 4.08194 6.87106 4.40544 7.19456C4.72894 7.51806 5.1677 7.6998 5.6252 7.6998C6.08269 7.6998 6.52145 7.51806 6.84495 7.19456C7.16845 6.87106 7.35019 6.4323 7.35019 5.9748C7.35019 5.51731 7.16845 5.07855 6.84495 4.75505C6.52145 4.43155 6.08269 4.2498 5.6252 4.2498ZM12.7632 4.58675C12.5476 4.37116 12.2551 4.25005 11.9502 4.25005C11.6453 4.25005 11.3528 4.37116 11.1371 4.58675L4.23715 11.4868C4.12731 11.5928 4.0397 11.7197 3.97943 11.86C3.91916 12.0003 3.88743 12.1512 3.88611 12.3039C3.88478 12.4566 3.91388 12.6081 3.9717 12.7494C4.02952 12.8907 4.11491 13.0191 4.22289 13.1271C4.33087 13.2351 4.45927 13.3205 4.6006 13.3783C4.74193 13.4361 4.89336 13.4652 5.04606 13.4639C5.19875 13.4626 5.34966 13.4308 5.48996 13.3706C5.63026 13.3103 5.75716 13.2227 5.86325 13.1129L12.7632 6.21285C12.9788 5.9972 13.0999 5.70474 13.0999 5.3998C13.0999 5.09487 12.9788 4.80241 12.7632 4.58675ZM11.3752 9.9998C10.9177 9.9998 10.4789 10.1815 10.1554 10.505C9.83194 10.8285 9.6502 11.2673 9.6502 11.7248C9.6502 12.1823 9.83194 12.6211 10.1554 12.9446C10.4789 13.2681 10.9177 13.4498 11.3752 13.4498C11.8327 13.4498 12.2715 13.2681 12.595 12.9446C12.9185 12.6211 13.1002 12.1823 13.1002 11.7248C13.1002 11.2673 12.9185 10.8285 12.595 10.505C12.2715 10.1815 11.8327 9.9998 11.3752 9.9998Z" fill="white"/>
</svg>
