<svg width="19" height="19" viewBox="0 0 19 19" fill="none" xmlns="http://www.w3.org/2000/svg">
<mask id="mask0_7089_28998" style="mask-type:luminance" maskUnits="userSpaceOnUse" x="0" y="0" width="19" height="19">
<path d="M9.5026 17.2738C13.875 17.2738 17.4193 13.7295 17.4193 9.3571C17.4193 4.98472 13.875 1.44043 9.5026 1.44043C5.13023 1.44043 1.58594 4.98472 1.58594 9.3571C1.58594 13.7295 5.13023 17.2738 9.5026 17.2738Z" fill="white" stroke="white" stroke-width="2" stroke-linejoin="round"/>
<path d="M9.50293 6.98242C9.81787 6.98242 10.1199 6.85731 10.3426 6.63461C10.5653 6.41191 10.6904 6.10987 10.6904 5.79492C10.6904 5.47998 10.5653 5.17793 10.3426 4.95523C10.1199 4.73253 9.81787 4.60742 9.50293 4.60742C9.18799 4.60742 8.88594 4.73253 8.66324 4.95523C8.44054 5.17793 8.31543 5.47998 8.31543 5.79492C8.31543 6.10987 8.44054 6.41191 8.66324 6.63461C8.88594 6.85731 9.18799 6.98242 9.50293 6.98242ZM9.50293 14.1074C9.81787 14.1074 10.1199 13.9823 10.3426 13.7596C10.5653 13.5369 10.6904 13.2349 10.6904 12.9199C10.6904 12.605 10.5653 12.3029 10.3426 12.0802C10.1199 11.8575 9.81787 11.7324 9.50293 11.7324C9.18799 11.7324 8.88594 11.8575 8.66324 12.0802C8.44054 12.3029 8.31543 12.605 8.31543 12.9199C8.31543 13.2349 8.44054 13.5369 8.66324 13.7596C8.88594 13.9823 9.18799 14.1074 9.50293 14.1074ZM5.94043 10.5449C6.25537 10.5449 6.55742 10.4198 6.78012 10.1971C7.00282 9.97441 7.12793 9.67237 7.12793 9.35742C7.12793 9.04248 7.00282 8.74043 6.78012 8.51773C6.55742 8.29503 6.25537 8.16992 5.94043 8.16992C5.62549 8.16992 5.32344 8.29503 5.10074 8.51773C4.87804 8.74043 4.75293 9.04248 4.75293 9.35742C4.75293 9.67237 4.87804 9.97441 5.10074 10.1971C5.32344 10.4198 5.62549 10.5449 5.94043 10.5449ZM13.0654 10.5449C13.3804 10.5449 13.6824 10.4198 13.9051 10.1971C14.1278 9.97441 14.2529 9.67237 14.2529 9.35742C14.2529 9.04248 14.1278 8.74043 13.9051 8.51773C13.6824 8.29503 13.3804 8.16992 13.0654 8.16992C12.7505 8.16992 12.4484 8.29503 12.2257 8.51773C12.003 8.74043 11.8779 9.04248 11.8779 9.35742C11.8779 9.67237 12.003 9.97441 12.2257 10.1971C12.4484 10.4198 12.7505 10.5449 13.0654 10.5449Z" fill="black" stroke="black" stroke-width="2" stroke-linejoin="round"/>
<path d="M9.50293 17.2734H17.4196" stroke="white" stroke-width="2" stroke-linecap="round"/>
</mask>
<g mask="url(#mask0_7089_28998)">
<path d="M0.00292969 -0.142578H19.0029V18.8574H0.00292969V-0.142578Z" fill="#2563EB"/>
</g>
</svg>
