<svg width="14" height="13" viewBox="0 0 14 13" fill="none" xmlns="http://www.w3.org/2000/svg">
<path d="M12.492 1.1275C12.0944 0.787199 11.6223 0.545297 11.1138 0.42137C10.6054 0.297443 10.0749 0.294974 9.56534 0.414163C8.54089 0.638476 7.64551 1.25615 7.07201 2.13416C6.50165 1.25899 5.61155 0.641668 4.59201 0.414163C4.08472 0.292312 3.55617 0.289072 3.04743 0.404695C2.53869 0.520318 2.06346 0.751689 1.65867 1.08083C0.60534 2.00083 0.0253402 4.04083 0.68534 6.1075C0.760007 6.33594 0.848896 6.55816 0.952007 6.77416C0.978673 6.82438 1.00312 6.8755 1.02534 6.9275C2.73867 10.4208 6.69867 12.2608 6.87201 12.3475C6.93641 12.3787 7.00712 12.3947 7.07867 12.3942C7.15023 12.3947 7.22094 12.3787 7.28534 12.3475C7.45201 12.2742 11.452 10.4475 13.152 6.91416L13.2053 6.80083C13.3107 6.57416 13.4018 6.34083 13.4787 6.10083C14.1053 4.10083 13.532 2.06083 12.492 1.1275ZM12.2853 6.41416C12.192 6.6235 12.0853 6.82572 11.9653 7.02083H9.75867C9.64887 7.02026 9.5409 6.99258 9.44437 6.94024C9.34784 6.88791 9.26573 6.81254 9.20534 6.72083L8.50534 5.68083L7.01867 8.65416C6.97172 8.74831 6.90314 8.83002 6.81856 8.89258C6.73397 8.95515 6.63578 8.99682 6.53201 9.01416H6.42534C6.33714 9.0138 6.24988 8.99593 6.16863 8.9616C6.08738 8.92727 6.01375 8.87715 5.95201 8.81416L4.14534 7.01416H2.20534C2.08267 6.79816 1.97156 6.57594 1.87201 6.3475C1.76881 6.13286 1.68406 5.90983 1.61867 5.68083H4.42534C4.51308 5.68032 4.60005 5.69714 4.68128 5.73032C4.7625 5.76349 4.83638 5.81237 4.89867 5.87416L6.23201 7.2075L7.81867 4.03416C7.8714 3.9291 7.95097 3.83985 8.04932 3.77545C8.14767 3.71106 8.26129 3.67382 8.37867 3.6675C8.49455 3.6605 8.61025 3.68388 8.71431 3.73533C8.81838 3.78678 8.90721 3.86451 8.97201 3.96083L10.1053 5.6675H12.572C12.4991 5.92527 12.4036 6.17416 12.2853 6.41416Z" fill="#00A7E3"/>
</svg>
