<svg width="16" height="14" viewBox="0 0 16 14" fill="none" xmlns="http://www.w3.org/2000/svg">
<path d="M15.1082 3.15154C15.2994 3.15176 15.4832 3.22639 15.6223 3.36019C15.7613 3.49399 15.8449 3.67686 15.8561 3.87143C15.8673 4.066 15.8052 4.25759 15.6825 4.40706C15.5598 4.55652 15.3858 4.65258 15.1959 4.6756L15.1082 4.68095V12.328C15.2994 12.3282 15.4832 12.4029 15.6223 12.5367C15.7613 12.6705 15.8449 12.8533 15.8561 13.0479C15.8673 13.2425 15.8052 13.4341 15.6825 13.5835C15.5598 13.733 15.3858 13.829 15.1959 13.8521L15.1082 13.8574H1.60667C1.41549 13.8572 1.23161 13.7826 1.09259 13.6488C0.953573 13.515 0.869916 13.3321 0.858712 13.1375C0.847508 12.943 0.909603 12.7514 1.03231 12.6019C1.15502 12.4524 1.32907 12.3564 1.51891 12.3334L1.60667 12.328V4.68095C1.41549 4.68074 1.23161 4.6061 1.09259 4.4723C0.953573 4.3385 0.869916 4.15563 0.858712 3.96106C0.847508 3.76649 0.909603 3.5749 1.03231 3.42543C1.15502 3.27597 1.32907 3.17991 1.51891 3.15689L1.60667 3.15154H15.1082ZM13.608 4.68095H3.10684V12.328H4.60701V6.97507C4.60701 6.77226 4.68603 6.57775 4.8267 6.43434C4.96737 6.29093 5.15816 6.21036 5.35709 6.21036C5.55602 6.21036 5.74681 6.29093 5.88748 6.43434C6.02815 6.57775 6.10717 6.77226 6.10717 6.97507V12.328H7.60734V6.97507C7.60734 6.77226 7.68637 6.57775 7.82703 6.43434C7.9677 6.29093 8.15849 6.21036 8.35742 6.21036C8.55636 6.21036 8.74714 6.29093 8.88781 6.43434C9.02848 6.57775 9.1075 6.77226 9.1075 6.97507V12.328H10.6077V6.97507C10.6077 6.77226 10.6867 6.57775 10.8274 6.43434C10.968 6.29093 11.1588 6.21036 11.3578 6.21036C11.5567 6.21036 11.7475 6.29093 11.8881 6.43434C12.0288 6.57775 12.1078 6.77226 12.1078 6.97507V12.328H13.608V4.68095ZM12.8579 0.857422C13.0569 0.857422 13.2476 0.937989 13.3883 1.0814C13.529 1.22481 13.608 1.41932 13.608 1.62213C13.608 1.82494 13.529 2.01945 13.3883 2.16286C13.2476 2.30627 13.0569 2.38683 12.8579 2.38683H3.85692C3.65799 2.38683 3.4672 2.30627 3.32653 2.16286C3.18587 2.01945 3.10684 1.82494 3.10684 1.62213C3.10684 1.41932 3.18587 1.22481 3.32653 1.0814C3.4672 0.937989 3.65799 0.857422 3.85692 0.857422H12.8579Z" fill="#003235"/>
</svg>
