<svg width="21" height="18" viewBox="0 0 21 18" fill="none" xmlns="http://www.w3.org/2000/svg">
<path fill-rule="evenodd" clip-rule="evenodd" d="M19.0996 5.00417C19.043 5.00083 18.9826 4.9995 18.9186 5.00017H16.3936C14.3256 5.00017 12.5566 6.62817 12.5566 8.75017C12.5566 10.8722 14.3266 12.5002 16.3936 12.5002H18.9186C18.9826 12.5008 19.0433 12.4995 19.1006 12.4962C19.5257 12.4705 19.9269 12.2913 20.2295 11.9917C20.5322 11.6922 20.7156 11.2929 20.7456 10.8682C20.7496 10.8082 20.7496 10.7432 20.7496 10.6832V6.81717C20.7496 6.75717 20.7496 6.69217 20.7456 6.63217C20.7156 6.20743 20.5322 5.8081 20.2295 5.50858C19.9269 5.20907 19.5247 5.02979 19.0996 5.00417ZM16.1726 9.75017C16.7046 9.75017 17.1356 9.30217 17.1356 8.75017C17.1356 8.19817 16.7046 7.75017 16.1726 7.75017C15.6396 7.75017 15.2086 8.19817 15.2086 8.75017C15.2086 9.30217 15.6396 9.75017 16.1726 9.75017Z" fill="white"/>
<path fill-rule="evenodd" clip-rule="evenodd" d="M18.918 14C18.9526 13.9986 18.987 14.0054 19.0184 14.0198C19.0499 14.0342 19.0775 14.0558 19.099 14.0829C19.1206 14.11 19.1354 14.1418 19.1424 14.1757C19.1493 14.2096 19.1481 14.2446 19.139 14.278C18.939 14.99 18.62 15.598 18.109 16.108C17.36 16.858 16.411 17.189 15.239 17.347C14.099 17.5 12.644 17.5 10.806 17.5H8.694C6.856 17.5 5.4 17.5 4.261 17.347C3.089 17.189 2.14 16.857 1.391 16.109C0.643 15.36 0.311 14.411 0.153 13.239C1.19209e-07 12.099 0 10.644 0 8.806V8.694C0 6.856 1.19209e-07 5.4 0.153 4.26C0.311 3.088 0.643 2.139 1.391 1.39C2.14 0.642 3.089 0.31 4.261 0.152C5.401 -4.47035e-08 6.856 0 8.694 0H10.806C12.644 0 14.1 1.19209e-07 15.239 0.153C16.411 0.311 17.36 0.643 18.109 1.391C18.62 1.903 18.939 2.51 19.139 3.222C19.1481 3.25537 19.1493 3.29042 19.1424 3.32432C19.1354 3.35822 19.1206 3.39 19.099 3.41708C19.0775 3.44417 19.0499 3.46579 19.0184 3.4802C18.987 3.4946 18.9526 3.50139 18.918 3.5H16.394C13.557 3.5 11.057 5.74 11.057 8.75C11.057 11.76 13.557 14 16.394 14H18.918ZM3.75 4C3.55109 4 3.36032 4.07902 3.21967 4.21967C3.07902 4.36032 3 4.55109 3 4.75C3 4.94891 3.07902 5.13968 3.21967 5.28033C3.36032 5.42098 3.55109 5.5 3.75 5.5H7.75C7.94891 5.5 8.13968 5.42098 8.28033 5.28033C8.42098 5.13968 8.5 4.94891 8.5 4.75C8.5 4.55109 8.42098 4.36032 8.28033 4.21967C8.13968 4.07902 7.94891 4 7.75 4H3.75Z" fill="white"/>
</svg>
