<svg width="536" height="546" viewBox="0 0 536 546" fill="none" xmlns="http://www.w3.org/2000/svg">
<rect x="42.5" width="447" height="546" rx="63.3063" fill="#F5F0FF"/>
<rect x="89.5" y="47" width="353" height="55" rx="14.8956" fill="#003235"/>
<rect x="0.5" y="129" width="535" height="83" rx="14.8956" fill="#003235"/>
<path d="M75.7482 174.174C72.2204 174.174 70.8476 172.314 70.8476 169.569V169.03H72.8287V169.586C72.8287 171.498 73.4717 172.366 75.7482 172.366C78.0248 172.366 78.7025 171.515 78.7025 169.673V162.357H80.6662V169.655C80.6662 172.332 79.3107 174.174 75.7482 174.174ZM86.7462 174.174C83.8788 174.174 81.9498 172.349 81.9498 169.69C81.9498 166.997 83.8788 165.189 86.7462 165.189C89.6309 165.189 91.5599 166.997 91.5599 169.69C91.5599 172.349 89.6309 174.174 86.7462 174.174ZM86.7462 172.505C88.8489 172.505 89.7178 171.515 89.7178 169.69C89.7178 167.848 88.8489 166.84 86.7462 166.84C84.6608 166.84 83.7919 167.848 83.7919 169.69C83.7919 171.515 84.6608 172.505 86.7462 172.505ZM94.6424 174H92.9219V162.357H94.7988V167.709H94.9031C95.2506 166.249 96.3976 165.189 98.4656 165.189C101.124 165.189 102.584 166.997 102.584 169.69C102.584 172.349 101.107 174.174 98.3613 174.174C96.3976 174.174 95.129 173.235 94.764 171.515H94.6424V174ZM94.7988 169.777C94.7988 171.584 95.911 172.453 97.7705 172.453C99.6647 172.453 100.707 171.758 100.707 169.69C100.707 167.605 99.6473 166.892 97.8052 166.892C95.8589 166.892 94.7988 167.796 94.7988 169.638V169.777ZM109.392 174.174C107.602 174.174 106.473 173.34 106.473 171.915C106.473 170.576 107.55 169.881 109.253 169.69L113.181 169.273V168.769C113.181 167.344 112.555 166.84 110.904 166.84C109.305 166.84 108.523 167.362 108.523 168.63V168.7H106.664V168.63C106.664 166.666 108.297 165.189 111.043 165.189C113.789 165.189 115.023 166.684 115.023 168.752V174H113.302V171.845H113.181C112.729 173.305 111.356 174.174 109.392 174.174ZM108.35 171.793C108.35 172.488 108.819 172.818 109.896 172.818C111.86 172.818 113.181 172.088 113.181 170.385L109.792 170.768C108.819 170.889 108.35 171.115 108.35 171.793ZM120.885 174H118.799L123.995 162.357H126.637L131.833 174H129.713L128.375 170.976H122.223L120.885 174ZM124.551 165.745L122.97 169.291H127.627L126.046 165.745L125.368 164.094H125.229L124.551 165.745ZM134.579 174H132.702V162.357H134.579V174ZM140.661 174.174C137.828 174.174 135.969 172.575 135.969 169.69C135.969 166.997 137.811 165.189 140.626 165.189C143.303 165.189 145.127 166.666 145.127 169.291C145.127 169.603 145.11 169.847 145.058 170.107H137.724C137.794 171.776 138.61 172.662 140.609 172.662C142.416 172.662 143.164 172.071 143.164 171.046V170.907H145.04V171.063C145.04 172.905 143.233 174.174 140.661 174.174ZM140.592 166.666C138.68 166.666 137.846 167.518 137.742 169.065H143.355V169.03C143.355 167.431 142.434 166.666 140.592 166.666ZM148.41 174H146.533V165.363H148.253V167.692H148.375C148.636 166.301 149.574 165.189 151.347 165.189C153.31 165.189 154.162 166.597 154.162 168.23V169.36H152.303V168.595C152.303 167.362 151.781 166.788 150.495 166.788C149.018 166.788 148.41 167.605 148.41 169.151V174ZM161.006 174H159.025C157.166 174 156.019 173.183 156.019 171.08V166.927H154.559V165.363H156.019V163.469H157.878V165.363H161.006V166.927H157.878V170.976C157.878 172.036 158.365 172.314 159.442 172.314H161.006V174ZM166.264 174.174C163.484 174.174 161.902 173.079 161.902 171.08V171.028H163.779V171.167C163.779 172.297 164.457 172.662 166.264 172.662C167.95 172.662 168.454 172.314 168.454 171.55C168.454 170.837 168.037 170.611 166.803 170.437L164.439 170.125C162.806 169.916 161.815 169.221 161.815 167.779C161.815 166.267 163.188 165.189 165.847 165.189C168.488 165.189 170.087 166.249 170.087 168.3V168.352H168.228V168.248C168.228 167.223 167.706 166.684 165.795 166.684C164.213 166.684 163.657 167.031 163.657 167.848C163.657 168.526 164.005 168.769 165.308 168.943L167.307 169.221C169.357 169.482 170.296 170.177 170.296 171.602C170.296 173.218 168.697 174.174 166.264 174.174Z" fill="white"/>
<path d="M210.051 176H208.308V167.77H205.661V166.528H206.178C207.372 166.528 208.05 166.221 208.518 165.188H210.051V176ZM216.165 176H214.423V167.98H216.02V170.465H216.133C216.375 169.11 217.44 167.819 219.473 167.819C221.7 167.819 222.798 169.319 222.798 171.175V176H221.055V171.643C221.055 170.142 220.377 169.384 218.715 169.384C216.956 169.384 216.165 170.288 216.165 172.03V176ZM228.385 176.161C225.754 176.161 224.028 174.677 224.028 171.998C224.028 169.497 225.738 167.819 228.352 167.819C230.838 167.819 232.532 169.19 232.532 171.627C232.532 171.917 232.516 172.143 232.467 172.385H225.658C225.722 173.934 226.481 174.757 228.336 174.757C230.015 174.757 230.708 174.209 230.708 173.257V173.128H232.451V173.273C232.451 174.983 230.773 176.161 228.385 176.161ZM228.32 169.19C226.545 169.19 225.771 169.981 225.674 171.417H230.886V171.385C230.886 169.9 230.031 169.19 228.32 169.19ZM237.678 176H235.515L233.111 167.98H234.918L236.258 172.531L236.629 174.596H236.758L237.355 172.369L239.033 167.98H241.26L242.955 172.369L243.552 174.596H243.681L244.052 172.531L245.391 167.98H247.166L244.73 176H242.567L240.808 171.385L240.195 169.416H240.066L239.453 171.385L237.678 176ZM252.568 167.044H250.825V165.188H252.568V167.044ZM249.728 178.743H249.228V177.404H249.777C250.454 177.404 250.825 177.13 250.825 176.403V167.98H252.568V176.097C252.568 178.098 251.423 178.743 249.728 178.743ZM258.28 176.161C255.618 176.161 253.827 174.467 253.827 171.998C253.827 169.497 255.618 167.819 258.28 167.819C260.959 167.819 262.75 169.497 262.75 171.998C262.75 174.467 260.959 176.161 258.28 176.161ZM258.28 174.612C260.233 174.612 261.04 173.692 261.04 171.998C261.04 170.288 260.233 169.352 258.28 169.352C256.344 169.352 255.537 170.288 255.537 171.998C255.537 173.692 256.344 174.612 258.28 174.612ZM265.613 176H264.015V165.188H265.758V170.158H265.855C266.177 168.803 267.243 167.819 269.163 167.819C271.632 167.819 272.987 169.497 272.987 171.998C272.987 174.467 271.616 176.161 269.066 176.161C267.243 176.161 266.065 175.29 265.726 173.692H265.613V176ZM265.758 172.079C265.758 173.757 266.791 174.564 268.517 174.564C270.276 174.564 271.244 173.918 271.244 171.998C271.244 170.062 270.26 169.4 268.55 169.4C266.742 169.4 265.758 170.239 265.758 171.95V172.079ZM279.309 176H277.566V169.432H276.356V167.98H277.582C277.776 166.221 279.115 165.188 281.391 165.188H282.181V166.479H281.116C279.842 166.479 279.18 166.818 279.277 167.98H282.181V169.432H279.309V176ZM287.245 176.161C284.582 176.161 282.791 174.467 282.791 171.998C282.791 169.497 284.582 167.819 287.245 167.819C289.924 167.819 291.715 169.497 291.715 171.998C291.715 174.467 289.924 176.161 287.245 176.161ZM287.245 174.612C289.198 174.612 290.004 173.692 290.004 171.998C290.004 170.288 289.198 169.352 287.245 169.352C285.309 169.352 284.502 170.288 284.502 171.998C284.502 173.692 285.309 174.612 287.245 174.612ZM294.722 176H292.98V167.98H294.577V170.142H294.69C294.932 168.851 295.804 167.819 297.45 167.819C299.273 167.819 300.064 169.126 300.064 170.643V171.691H298.337V170.981C298.337 169.836 297.853 169.303 296.659 169.303C295.287 169.303 294.722 170.062 294.722 171.498V176ZM306.272 176H304.529V169.432H303.319V167.98H304.545C304.739 166.221 306.078 165.188 308.354 165.188H309.144V166.479H308.079C306.805 166.479 306.143 166.818 306.24 167.98H309.144V169.432H306.272V176ZM311.852 176H310.109V167.98H311.707V170.142H311.82C312.062 168.851 312.933 167.819 314.579 167.819C316.403 167.819 317.193 169.126 317.193 170.643V171.691H315.467V170.981C315.467 169.836 314.983 169.303 313.788 169.303C312.417 169.303 311.852 170.062 311.852 171.498V176ZM322.387 176.161C319.724 176.161 317.933 174.467 317.933 171.998C317.933 169.497 319.724 167.819 322.387 167.819C325.066 167.819 326.857 169.497 326.857 171.998C326.857 174.467 325.066 176.161 322.387 176.161ZM322.387 174.612C324.339 174.612 325.146 173.692 325.146 171.998C325.146 170.288 324.339 169.352 322.387 169.352C320.45 169.352 319.644 170.288 319.644 171.998C319.644 173.692 320.45 174.612 322.387 174.612ZM329.864 176H328.121V167.98H329.719V170.465H329.832C330.074 169.11 331.139 167.819 333.172 167.819C335.399 167.819 336.497 169.319 336.497 171.175V176H334.754V171.643C334.754 170.142 334.076 169.384 332.414 169.384C330.655 169.384 329.864 170.288 329.864 172.03V176ZM343.31 176H341.47C339.744 176 338.679 175.242 338.679 173.289V169.432H337.323V167.98H338.679V166.221H340.405V167.98H343.31V169.432H340.405V173.192C340.405 174.177 340.857 174.435 341.858 174.435H343.31V176ZM351.192 176.161C348.562 176.161 346.835 174.677 346.835 171.998C346.835 169.497 348.546 167.819 351.16 167.819C353.645 167.819 355.339 169.19 355.339 171.627C355.339 171.917 355.323 172.143 355.275 172.385H348.465C348.53 173.934 349.288 174.757 351.144 174.757C352.822 174.757 353.516 174.209 353.516 173.257V173.128H355.259V173.273C355.259 174.983 353.58 176.161 351.192 176.161ZM351.128 169.19C349.353 169.19 348.578 169.981 348.481 171.417H353.693V171.385C353.693 169.9 352.838 169.19 351.128 169.19ZM358.387 176H356.645V167.98H358.242V170.465H358.355C358.597 169.11 359.662 167.819 361.696 167.819C363.922 167.819 365.02 169.319 365.02 171.175V176H363.277V171.643C363.277 170.142 362.599 169.384 360.937 169.384C359.178 169.384 358.387 170.288 358.387 172.03V176ZM370.107 176.161C367.573 176.161 366.169 174.467 366.169 171.998C366.169 169.497 367.557 167.819 369.994 167.819C371.898 167.819 372.979 168.803 373.302 170.158H373.399V165.188H375.141V176H373.544V173.692H373.431C373.092 175.29 371.914 176.161 370.107 176.161ZM367.928 171.998C367.928 173.918 368.912 174.564 370.639 174.564C372.35 174.564 373.399 173.757 373.399 172.079V171.95C373.399 170.239 372.398 169.4 370.607 169.4C368.929 169.4 367.928 170.062 367.928 171.998ZM383.4 176.355L382.512 177.162C381.044 175.774 379.268 173.66 379.268 170.594C379.268 167.528 381.044 165.414 382.512 164.026L383.4 164.833C382.06 166.576 381.173 167.899 381.173 170.594C381.173 173.289 382.06 174.612 383.4 176.355ZM386.72 176H384.977V169.432H383.767V167.98H384.994C385.187 166.221 386.527 165.188 388.802 165.188H389.593V166.479H388.528C387.253 166.479 386.591 166.818 386.688 167.98H389.593V169.432H386.72V176ZM393.898 176.161C391.639 176.161 390.541 174.661 390.541 172.805V167.98H392.268V172.337C392.268 173.838 392.962 174.596 394.656 174.596C396.431 174.596 397.254 173.692 397.254 171.95V167.98H398.981V176H397.383V173.515H397.286C397.028 174.87 395.963 176.161 393.898 176.161ZM402.307 176H400.564V165.188H402.307V176ZM405.664 176H403.921V165.188H405.664V176ZM412.538 176H410.698C408.972 176 407.907 175.242 407.907 173.289V169.432H406.551V167.98H407.907V166.221H409.633V167.98H412.538V169.432H409.633V173.192C409.633 174.177 410.085 174.435 411.086 174.435H412.538V176ZM415.371 167.044H413.628V165.188H415.371V167.044ZM415.371 176H413.628V167.98H415.371V176ZM418.727 176H416.985V167.98H418.582V170.4H418.679C418.889 169.061 419.76 167.819 421.761 167.819C423.585 167.819 424.569 168.932 424.795 170.465H424.892C425.102 169.093 426.005 167.819 428.038 167.819C430.12 167.819 431.169 169.239 431.169 171.175V176H429.442V171.643C429.442 170.062 428.813 169.384 427.264 169.384C425.553 169.384 424.94 170.255 424.94 172.03V176H423.214V171.643C423.214 170.062 422.6 169.384 421.051 169.384C419.325 169.384 418.727 170.255 418.727 172.03V176ZM434.599 176H432.405V173.499H434.599V176ZM437.767 176H435.572V173.499H437.767V176Z" fill="white"/>
<rect x="20.5" y="158" width="26" height="26" rx="6.2065" fill="#DDCBFF"/>
<path d="M29.0508 171.513L31.9471 173.996L37.7399 167.789" stroke="#FFFEFF" stroke-width="1.86195" stroke-linecap="round" stroke-linejoin="round"/>
<rect x="0.5" y="370" width="535" height="83" rx="14.8956" fill="#003235"/>
<path d="M75.7482 415.174C72.2204 415.174 70.8476 413.314 70.8476 410.569V410.03H72.8287V410.586C72.8287 412.498 73.4717 413.366 75.7482 413.366C78.0248 413.366 78.7025 412.515 78.7025 410.673V403.357H80.6662V410.655C80.6662 413.332 79.3107 415.174 75.7482 415.174ZM86.7462 415.174C83.8788 415.174 81.9498 413.349 81.9498 410.69C81.9498 407.997 83.8788 406.189 86.7462 406.189C89.6309 406.189 91.5599 407.997 91.5599 410.69C91.5599 413.349 89.6309 415.174 86.7462 415.174ZM86.7462 413.505C88.8489 413.505 89.7178 412.515 89.7178 410.69C89.7178 408.848 88.8489 407.84 86.7462 407.84C84.6608 407.84 83.7919 408.848 83.7919 410.69C83.7919 412.515 84.6608 413.505 86.7462 413.505ZM94.6424 415H92.9219V403.357H94.7988V408.709H94.9031C95.2506 407.249 96.3976 406.189 98.4656 406.189C101.124 406.189 102.584 407.997 102.584 410.69C102.584 413.349 101.107 415.174 98.3613 415.174C96.3976 415.174 95.129 414.235 94.764 412.515H94.6424V415ZM94.7988 410.777C94.7988 412.584 95.911 413.453 97.7705 413.453C99.6647 413.453 100.707 412.758 100.707 410.69C100.707 408.605 99.6473 407.892 97.8052 407.892C95.8589 407.892 94.7988 408.796 94.7988 410.638V410.777ZM109.392 415.174C107.602 415.174 106.473 414.34 106.473 412.915C106.473 411.576 107.55 410.881 109.253 410.69L113.181 410.273V409.769C113.181 408.344 112.555 407.84 110.904 407.84C109.305 407.84 108.523 408.362 108.523 409.63V409.7H106.664V409.63C106.664 407.666 108.297 406.189 111.043 406.189C113.789 406.189 115.023 407.684 115.023 409.752V415H113.302V412.845H113.181C112.729 414.305 111.356 415.174 109.392 415.174ZM108.35 412.793C108.35 413.488 108.819 413.818 109.896 413.818C111.86 413.818 113.181 413.088 113.181 411.385L109.792 411.768C108.819 411.889 108.35 412.115 108.35 412.793ZM120.885 415H118.799L123.995 403.357H126.637L131.833 415H129.713L128.375 411.976H122.223L120.885 415ZM124.551 406.745L122.97 410.291H127.627L126.046 406.745L125.368 405.094H125.229L124.551 406.745ZM134.579 415H132.702V403.357H134.579V415ZM140.661 415.174C137.828 415.174 135.969 413.575 135.969 410.69C135.969 407.997 137.811 406.189 140.626 406.189C143.303 406.189 145.127 407.666 145.127 410.291C145.127 410.603 145.11 410.847 145.058 411.107H137.724C137.794 412.776 138.61 413.662 140.609 413.662C142.416 413.662 143.164 413.071 143.164 412.046V411.907H145.04V412.063C145.04 413.905 143.233 415.174 140.661 415.174ZM140.592 407.666C138.68 407.666 137.846 408.518 137.742 410.065H143.355V410.03C143.355 408.431 142.434 407.666 140.592 407.666ZM148.41 415H146.533V406.363H148.253V408.692H148.375C148.636 407.301 149.574 406.189 151.347 406.189C153.31 406.189 154.162 407.597 154.162 409.23V410.36H152.303V409.595C152.303 408.362 151.781 407.788 150.495 407.788C149.018 407.788 148.41 408.605 148.41 410.151V415ZM161.006 415H159.025C157.166 415 156.019 414.183 156.019 412.08V407.927H154.559V406.363H156.019V404.469H157.878V406.363H161.006V407.927H157.878V411.976C157.878 413.036 158.365 413.314 159.442 413.314H161.006V415ZM166.264 415.174C163.484 415.174 161.902 414.079 161.902 412.08V412.028H163.779V412.167C163.779 413.297 164.457 413.662 166.264 413.662C167.95 413.662 168.454 413.314 168.454 412.55C168.454 411.837 168.037 411.611 166.803 411.437L164.439 411.125C162.806 410.916 161.815 410.221 161.815 408.779C161.815 407.267 163.188 406.189 165.847 406.189C168.488 406.189 170.087 407.249 170.087 409.3V409.352H168.228V409.248C168.228 408.223 167.706 407.684 165.795 407.684C164.213 407.684 163.657 408.031 163.657 408.848C163.657 409.526 164.005 409.769 165.308 409.943L167.307 410.221C169.357 410.482 170.296 411.177 170.296 412.602C170.296 414.218 168.697 415.174 166.264 415.174Z" fill="white"/>
<path d="M210.051 416H208.308V407.77H205.661V406.528H206.178C207.372 406.528 208.05 406.221 208.518 405.188H210.051V416ZM216.165 416H214.423V407.98H216.02V410.465H216.133C216.375 409.11 217.44 407.819 219.473 407.819C221.7 407.819 222.798 409.319 222.798 411.175V416H221.055V411.643C221.055 410.142 220.377 409.384 218.715 409.384C216.956 409.384 216.165 410.288 216.165 412.03V416ZM228.385 416.161C225.754 416.161 224.028 414.677 224.028 411.998C224.028 409.497 225.738 407.819 228.352 407.819C230.838 407.819 232.532 409.19 232.532 411.627C232.532 411.917 232.516 412.143 232.467 412.385H225.658C225.722 413.934 226.481 414.757 228.336 414.757C230.015 414.757 230.708 414.209 230.708 413.257V413.128H232.451V413.273C232.451 414.983 230.773 416.161 228.385 416.161ZM228.32 409.19C226.545 409.19 225.771 409.981 225.674 411.417H230.886V411.385C230.886 409.9 230.031 409.19 228.32 409.19ZM237.678 416H235.515L233.111 407.98H234.918L236.258 412.531L236.629 414.596H236.758L237.355 412.369L239.033 407.98H241.26L242.955 412.369L243.552 414.596H243.681L244.052 412.531L245.391 407.98H247.166L244.73 416H242.567L240.808 411.385L240.195 409.416H240.066L239.453 411.385L237.678 416ZM252.568 407.044H250.825V405.188H252.568V407.044ZM249.728 418.743H249.228V417.404H249.777C250.454 417.404 250.825 417.13 250.825 416.403V407.98H252.568V416.097C252.568 418.098 251.423 418.743 249.728 418.743ZM258.28 416.161C255.618 416.161 253.827 414.467 253.827 411.998C253.827 409.497 255.618 407.819 258.28 407.819C260.959 407.819 262.75 409.497 262.75 411.998C262.75 414.467 260.959 416.161 258.28 416.161ZM258.28 414.612C260.233 414.612 261.04 413.692 261.04 411.998C261.04 410.288 260.233 409.352 258.28 409.352C256.344 409.352 255.537 410.288 255.537 411.998C255.537 413.692 256.344 414.612 258.28 414.612ZM265.613 416H264.015V405.188H265.758V410.158H265.855C266.177 408.803 267.243 407.819 269.163 407.819C271.632 407.819 272.987 409.497 272.987 411.998C272.987 414.467 271.616 416.161 269.066 416.161C267.243 416.161 266.065 415.29 265.726 413.692H265.613V416ZM265.758 412.079C265.758 413.757 266.791 414.564 268.517 414.564C270.276 414.564 271.244 413.918 271.244 411.998C271.244 410.062 270.26 409.4 268.55 409.4C266.742 409.4 265.758 410.239 265.758 411.95V412.079ZM279.309 416H277.566V409.432H276.356V407.98H277.582C277.776 406.221 279.115 405.188 281.391 405.188H282.181V406.479H281.116C279.842 406.479 279.18 406.818 279.277 407.98H282.181V409.432H279.309V416ZM287.245 416.161C284.582 416.161 282.791 414.467 282.791 411.998C282.791 409.497 284.582 407.819 287.245 407.819C289.924 407.819 291.715 409.497 291.715 411.998C291.715 414.467 289.924 416.161 287.245 416.161ZM287.245 414.612C289.198 414.612 290.004 413.692 290.004 411.998C290.004 410.288 289.198 409.352 287.245 409.352C285.309 409.352 284.502 410.288 284.502 411.998C284.502 413.692 285.309 414.612 287.245 414.612ZM294.722 416H292.98V407.98H294.577V410.142H294.69C294.932 408.851 295.804 407.819 297.45 407.819C299.273 407.819 300.064 409.126 300.064 410.643V411.691H298.337V410.981C298.337 409.836 297.853 409.303 296.659 409.303C295.287 409.303 294.722 410.062 294.722 411.498V416ZM306.272 416H304.529V409.432H303.319V407.98H304.545C304.739 406.221 306.078 405.188 308.354 405.188H309.144V406.479H308.079C306.805 406.479 306.143 406.818 306.24 407.98H309.144V409.432H306.272V416ZM311.852 416H310.109V407.98H311.707V410.142H311.82C312.062 408.851 312.933 407.819 314.579 407.819C316.403 407.819 317.193 409.126 317.193 410.643V411.691H315.467V410.981C315.467 409.836 314.983 409.303 313.788 409.303C312.417 409.303 311.852 410.062 311.852 411.498V416ZM322.387 416.161C319.724 416.161 317.933 414.467 317.933 411.998C317.933 409.497 319.724 407.819 322.387 407.819C325.066 407.819 326.857 409.497 326.857 411.998C326.857 414.467 325.066 416.161 322.387 416.161ZM322.387 414.612C324.339 414.612 325.146 413.692 325.146 411.998C325.146 410.288 324.339 409.352 322.387 409.352C320.45 409.352 319.644 410.288 319.644 411.998C319.644 413.692 320.45 414.612 322.387 414.612ZM329.864 416H328.121V407.98H329.719V410.465H329.832C330.074 409.11 331.139 407.819 333.172 407.819C335.399 407.819 336.497 409.319 336.497 411.175V416H334.754V411.643C334.754 410.142 334.076 409.384 332.414 409.384C330.655 409.384 329.864 410.288 329.864 412.03V416ZM343.31 416H341.47C339.744 416 338.679 415.242 338.679 413.289V409.432H337.323V407.98H338.679V406.221H340.405V407.98H343.31V409.432H340.405V413.192C340.405 414.177 340.857 414.435 341.858 414.435H343.31V416ZM351.192 416.161C348.562 416.161 346.835 414.677 346.835 411.998C346.835 409.497 348.546 407.819 351.16 407.819C353.645 407.819 355.339 409.19 355.339 411.627C355.339 411.917 355.323 412.143 355.275 412.385H348.465C348.53 413.934 349.288 414.757 351.144 414.757C352.822 414.757 353.516 414.209 353.516 413.257V413.128H355.259V413.273C355.259 414.983 353.58 416.161 351.192 416.161ZM351.128 409.19C349.353 409.19 348.578 409.981 348.481 411.417H353.693V411.385C353.693 409.9 352.838 409.19 351.128 409.19ZM358.387 416H356.645V407.98H358.242V410.465H358.355C358.597 409.11 359.662 407.819 361.696 407.819C363.922 407.819 365.02 409.319 365.02 411.175V416H363.277V411.643C363.277 410.142 362.599 409.384 360.937 409.384C359.178 409.384 358.387 410.288 358.387 412.03V416ZM370.107 416.161C367.573 416.161 366.169 414.467 366.169 411.998C366.169 409.497 367.557 407.819 369.994 407.819C371.898 407.819 372.979 408.803 373.302 410.158H373.399V405.188H375.141V416H373.544V413.692H373.431C373.092 415.29 371.914 416.161 370.107 416.161ZM367.928 411.998C367.928 413.918 368.912 414.564 370.639 414.564C372.35 414.564 373.399 413.757 373.399 412.079V411.95C373.399 410.239 372.398 409.4 370.607 409.4C368.929 409.4 367.928 410.062 367.928 411.998ZM383.4 416.355L382.512 417.162C381.044 415.774 379.268 413.66 379.268 410.594C379.268 407.528 381.044 405.414 382.512 404.026L383.4 404.833C382.06 406.576 381.173 407.899 381.173 410.594C381.173 413.289 382.06 414.612 383.4 416.355ZM386.72 416H384.977V409.432H383.767V407.98H384.994C385.187 406.221 386.527 405.188 388.802 405.188H389.593V406.479H388.528C387.253 406.479 386.591 406.818 386.688 407.98H389.593V409.432H386.72V416ZM393.898 416.161C391.639 416.161 390.541 414.661 390.541 412.805V407.98H392.268V412.337C392.268 413.838 392.962 414.596 394.656 414.596C396.431 414.596 397.254 413.692 397.254 411.95V407.98H398.981V416H397.383V413.515H397.286C397.028 414.87 395.963 416.161 393.898 416.161ZM402.307 416H400.564V405.188H402.307V416ZM405.664 416H403.921V405.188H405.664V416ZM412.538 416H410.698C408.972 416 407.907 415.242 407.907 413.289V409.432H406.551V407.98H407.907V406.221H409.633V407.98H412.538V409.432H409.633V413.192C409.633 414.177 410.085 414.435 411.086 414.435H412.538V416ZM415.371 407.044H413.628V405.188H415.371V407.044ZM415.371 416H413.628V407.98H415.371V416ZM418.727 416H416.985V407.98H418.582V410.4H418.679C418.889 409.061 419.76 407.819 421.761 407.819C423.585 407.819 424.569 408.932 424.795 410.465H424.892C425.102 409.093 426.005 407.819 428.038 407.819C430.12 407.819 431.169 409.239 431.169 411.175V416H429.442V411.643C429.442 410.062 428.813 409.384 427.264 409.384C425.553 409.384 424.94 410.255 424.94 412.03V416H423.214V411.643C423.214 410.062 422.6 409.384 421.051 409.384C419.325 409.384 418.727 410.255 418.727 412.03V416ZM434.599 416H432.405V413.499H434.599V416ZM437.767 416H435.572V413.499H437.767V416Z" fill="white"/>
<rect x="20.5" y="399" width="26" height="26" rx="6.2065" fill="#DDCBFF"/>
<path d="M29.0508 412.325L31.9471 414.808L37.7399 408.602" stroke="#FFFEFF" stroke-width="1.86195" stroke-linecap="round" stroke-linejoin="round"/>
<rect x="87.5" y="241" width="26" height="26" rx="6.2065" fill="#003235"/>
<path d="M96.0781 254.681L98.9745 257.164L104.767 250.957" stroke="#FFFEFF" stroke-width="1.86195" stroke-linecap="round" stroke-linejoin="round"/>
<rect x="87.5" y="317" width="26" height="26" rx="6.2065" fill="#003235"/>
<path d="M96.0781 330.4L98.9745 332.882L104.767 326.676" stroke="#FFFEFF" stroke-width="1.86195" stroke-linecap="round" stroke-linejoin="round"/>
<rect x="297.5" y="311" width="26" height="26" rx="6.2065" fill="#003235"/>
<path d="M305.859 324.193L308.756 326.675L314.548 320.469" stroke="#FFFEFF" stroke-width="1.86195" stroke-linecap="round" stroke-linejoin="round"/>
<rect x="295.5" y="239" width="26" height="26" rx="6.2065" fill="#003235"/>
<path d="M304.617 252.199L307.514 254.681L313.306 248.475" stroke="#FFFEFF" stroke-width="1.86195" stroke-linecap="round" stroke-linejoin="round"/>
<rect x="86.5" y="472" width="26" height="26" rx="6.2065" fill="#003235"/>
<path d="M94.8398 485.562L97.7362 488.044L103.529 481.838" stroke="#FFFEFF" stroke-width="1.86195" stroke-linecap="round" stroke-linejoin="round"/>
<circle cx="408" cy="74.5" r="14.5" fill="white"/>
<rect x="112.5" y="68" width="12" height="2" fill="#DDCBFF"/>
<rect x="112.5" y="73" width="12" height="2" fill="#DDCBFF"/>
<rect x="112.5" y="78" width="12" height="2" fill="#DDCBFF"/>
<rect x="130.5" y="250" width="146" height="10" rx="5" fill="#003235"/>
<rect x="129.5" y="325" width="146" height="10" rx="5" fill="#003235"/>
<rect x="124.5" y="481" width="146" height="10" rx="5" fill="#003235"/>
<rect x="295.5" y="349" width="146" height="10" rx="5" fill="#003235"/>
<rect x="297.5" y="273" width="146" height="10" rx="5" fill="#003235"/>
<rect x="290.5" y="481" width="146" height="10" rx="5" fill="#003235"/>
</svg>
