<svg width="135" height="45" viewBox="0 0 135 45" fill="none" xmlns="http://www.w3.org/2000/svg">
<path d="M0.398438 34.1884L5.48649 1.57398H14.4414C16.3121 1.53644 18.1829 1.63848 20.0383 1.87925C21.1714 2.04142 22.2709 2.38503 23.2947 2.89686C24.8612 3.65925 26.1637 4.87311 27.0344 6.38217C27.8861 8.00386 28.3066 9.81729 28.2555 11.6483C28.2737 13.6179 27.8201 15.5631 26.9326 17.3215C26.1245 18.9557 24.8838 20.3372 23.3455 21.3156C22.3683 21.9018 21.2895 22.2987 20.1655 22.4859C18.271 22.7661 16.3561 22.8853 14.4414 22.842H10.8035L8.9718 34.1884H0.398438ZM11.9992 15.8968H12.8133C14.7651 16.0635 16.7284 15.758 18.5374 15.0064C19.0426 14.6895 19.4502 14.2389 19.7151 13.7046C19.98 13.1703 20.0919 12.573 20.0383 11.9791C20.065 11.4783 19.9591 10.9794 19.7313 10.5327C19.5035 10.0861 19.1618 9.70742 18.7408 9.43503C17.506 8.78438 16.1134 8.49349 14.7213 8.5955H13.1694L11.9992 15.8968Z" fill="#003235"/>
<path d="M45.8887 31.1839C44.8809 32.3762 43.6437 33.3539 42.2507 34.0587C40.9179 34.7013 39.4563 35.0319 37.9767 35.0255C36.7635 35.0565 35.5593 34.8089 34.4567 34.3017C33.3541 33.7945 32.3826 33.0412 31.6167 32.0998C29.8607 29.9542 28.9552 27.2377 29.0726 24.4677C28.9472 20.9315 30.1445 17.4756 32.4308 14.775C33.4527 13.5463 34.7377 12.5631 36.1909 11.8982C37.6441 11.2332 39.2282 10.9035 40.826 10.9335C42.2831 10.9094 43.7239 11.2413 45.0237 11.9003C46.3491 12.6334 47.4891 13.6603 48.3563 14.9022L48.8652 11.6458H56.4972L52.9102 34.135H45.5325L45.8887 31.1839ZM37.1118 23.7554C37.0883 24.3914 37.1933 25.0257 37.4206 25.6202C37.6479 26.2147 37.9928 26.7572 38.4346 27.2153C38.8922 27.6653 39.4383 28.0153 40.0383 28.243C40.6383 28.4707 41.279 28.5713 41.9199 28.5382C42.6692 28.5503 43.4114 28.3917 44.0902 28.0743C44.769 27.757 45.3666 27.2892 45.8378 26.7065C46.908 25.4156 47.469 23.7778 47.415 22.1018C47.4405 21.4732 47.3363 20.8461 47.1087 20.2595C46.8811 19.673 46.535 19.1397 46.0922 18.6928C45.6384 18.2538 45.0997 17.9122 44.5091 17.6891C43.9185 17.466 43.2884 17.366 42.6577 17.3953C41.9037 17.3835 41.1565 17.5394 40.4701 17.8518C39.7838 18.1642 39.1754 18.6252 38.6891 19.2016C37.6159 20.4709 37.0536 22.0942 37.1118 23.7554Z" fill="#003235"/>
<path d="M64.3547 32.9948L57.9438 11.625H66.161L68.1199 21.3432C68.1199 21.4704 68.1199 21.6739 68.2725 21.9283C68.5249 23.0232 68.6781 24.1386 68.7304 25.261C68.9085 24.6759 69.1121 24.0653 69.3665 23.4038C69.6209 22.7424 69.9516 22.0301 70.3077 21.2414L74.9633 11.625H83.5112L66.0338 44.0613H57.7148L64.3547 32.9948Z" fill="#003235"/>
<path d="M98.7005 34.1873V27.5729H83.0547L102.033 1.24219H103.534V23.884H107.503V27.5729H103.534V34.1873H98.7005ZM98.8277 12.1561L90.5341 23.884H98.7005V15.387C98.7005 14.9545 98.7005 14.4457 98.7005 13.9114C98.7005 13.3772 98.7768 12.7666 98.9549 12.1561H98.8277Z" fill="#003235"/>
<path d="M112.946 3.9409C112.937 3.54604 113.012 3.15374 113.165 2.78981C113.319 2.42588 113.547 2.09855 113.836 1.82935C114.12 1.54496 114.457 1.31978 114.828 1.16691C115.2 1.01405 115.597 0.936564 115.999 0.938949C116.396 0.926292 116.791 0.996685 117.159 1.14564C117.527 1.29459 117.86 1.51881 118.136 1.80391C118.422 2.07923 118.647 2.41189 118.796 2.78012C118.945 3.14836 119.015 3.5439 119.001 3.9409C119.014 4.75595 118.702 5.54277 118.136 6.12877C117.858 6.41137 117.525 6.63393 117.157 6.78271C116.789 6.93148 116.395 7.0033 115.999 6.99372C115.597 6.99611 115.2 6.91861 114.828 6.76574C114.457 6.61288 114.12 6.38769 113.836 6.1033C113.547 5.82347 113.319 5.48701 113.166 5.11494C113.013 4.74286 112.938 4.3432 112.946 3.9409ZM113.582 34.1894V13.0739H118.416V34.1894H113.582Z" fill="#003235"/>
<path d="M126.454 34.1898V17.3228H122.766V13.0743H126.454V5.00977H131.288V12.998H135.002V17.2465H131.288V34.1134L126.454 34.1898Z" fill="#003235"/>
</svg>
