<svg width="819" height="131" viewBox="0 0 819 131" fill="none" xmlns="http://www.w3.org/2000/svg">
<path d="M14.0101 78.942L30.2905 78.942C39.7538 78.942 45.0909 84.4136 45.0909 93.1593C45.0909 101.86 39.7538 107.332 30.2905 107.332L14.0101 107.332L14.0101 99.7073L30.425 99.7073C35.0894 99.7073 38.0046 97.1509 38.0046 93.1593C38.0046 89.1677 35.0894 86.5664 30.425 86.5664L14.0101 86.5664L14.0101 78.942ZM13.4271 63.3508C13.4271 58.4173 15.2659 51.062 23.4734 50.2995L23.4734 57.924C21.186 58.3276 19.6163 59.718 19.6163 62.9471C19.6163 65.6381 20.6478 67.3872 22.6212 67.3872C24.3704 67.3872 25.1328 66.1314 25.6261 63.7096L26.5231 59.4489C27.6892 53.8427 29.9765 50.2547 35.2239 50.2547C41.3235 50.2547 45.0909 55.2778 45.0909 62.9023C45.0909 69.7643 41.8168 75.9535 34.2821 76.6711L34.2821 69.0467C36.9731 68.5533 38.6774 66.266 38.6774 62.678C38.6774 59.9871 37.6458 58.3725 35.9415 58.3725C34.8652 58.3725 33.7439 58.9555 33.2506 61.6016L32.1742 66.6248C30.8735 72.6346 28.1377 75.4602 23.294 75.4602C17.1944 75.4602 13.4271 70.5267 13.4271 63.3508ZM20.603 23.9774L20.603 39.4505L26.1643 39.4505L26.1643 25.9059L32.6227 25.9059L32.6227 39.4505L37.9149 39.4505L37.9149 23.9774L44.5078 23.9774L44.5078 47.0301L14.0101 47.0301L14.0101 23.9774L20.603 23.9774Z" fill="white"/>
<path d="M50.7463 24.3253H264.591C281.206 24.3253 296.745 37.4739 296.745 54.6867C296.745 71.7799 281.325 85.0481 264.591 85.0481H75.9677V109.074H50.7463V24.3253ZM75.9677 43.6897V65.6837H259.69C265.667 65.6837 271.524 60.9024 271.524 54.6867C271.524 48.471 265.667 43.6897 259.69 43.6897H75.9677ZM284.279 109.074L335.559 24.3253H371.658L422.818 109.074H395.923L385.524 91.8615H321.573L311.174 109.074H284.279ZM332.81 73.3338H374.288L353.608 38.7888L332.81 73.3338ZM436.261 79.191L387.969 24.3253H419.407L448.812 58.0336L478.217 24.3253H509.654L461.482 79.191V109.074H436.261V79.191ZM602.963 89.8294H510.804V73.0948L569.972 24.2058H599.497L544.034 70.3455H602.963V24.2058H628.185V108.955H602.963V89.8294ZM671.312 109.074H646.091V24.3253H671.312V109.074ZM680.83 45.7217V24.3253H808.252V45.7217H757.211V109.074H731.99V45.7217H680.83Z" fill="white"/>
</svg>
