<svg width="62" height="58" viewBox="0 0 62 58" fill="none" xmlns="http://www.w3.org/2000/svg">
<path d="M0.8125 37.0557C0.8125 48.6231 10.6778 58 22.8473 58C35.0169 58 44.882 48.6231 44.882 37.0557C44.882 25.4883 35.0169 16.1113 22.8473 16.1113C10.6778 16.1113 0.8125 25.4883 0.8125 37.0557Z" fill="black"/>
<path d="M22.1177 8.41924C21.7047 8.94453 22.1401 9.66663 22.83 9.66663C38.7434 9.66663 51.644 21.929 51.644 37.0554C51.644 37.7111 52.4037 38.1248 52.9562 37.7324C58.333 33.9134 61.8137 27.8151 61.8137 20.9444C61.8137 9.37711 51.9488 0 39.7794 0C32.5511 0 26.1354 3.3085 22.1177 8.41924Z" fill="#003235"/>
<path d="M24.4269 43.9996H22.3228V42.1396C18.9143 41.8396 17.189 40.1596 17.189 37.6196V37.4996H19.4614V37.8196C19.4614 39.4196 20.4502 40.2196 23.5432 40.2196C26.2363 40.2196 27.1831 39.6596 27.1831 38.3996C27.1831 37.2396 26.4678 36.7996 24.6793 36.4796L21.2287 35.9396C18.8512 35.5396 17.168 34.4996 17.168 32.2996C17.168 30.4996 18.6197 28.6796 22.3228 28.4396V26.5996H24.4269V28.4596C27.7091 28.7996 29.224 30.6196 29.224 32.9796V33.0996H26.9727V32.8396C26.9727 31.1996 25.9417 30.3796 23.0172 30.3796C20.4502 30.3796 19.4403 30.9796 19.4403 32.1796C19.4403 33.3396 20.1557 33.7196 21.8179 34.0596L25.2474 34.6196C28.0668 35.0996 29.4555 36.3196 29.4555 38.2796C29.4555 40.1596 27.9616 41.9196 24.4269 42.1596V43.9996Z" fill="#003235"/>
</svg>
