<svg width="46" height="52" viewBox="0 0 46 52" fill="none" xmlns="http://www.w3.org/2000/svg">
<rect x="9.55078" width="36.0816" height="42.449" rx="8" fill="#196164"/>
<path d="M32.4922 24.4525C31.5339 24.4525 30.2645 24.4313 28.6842 24.4313C24.8299 24.4313 21.6607 21.2412 21.6607 17.3508V10.525C21.6607 9.98801 21.232 9.55078 20.7003 9.55078H9.47382C4.23464 9.55078 0 13.8509 0 19.1209V41.9903C0 47.5193 4.43639 51.9998 9.91094 51.9998H26.6288C31.8491 51.9998 36.0816 47.7273 36.0816 42.453V25.4076C36.0816 24.8685 35.655 24.4334 35.1212 24.4355C34.2239 24.4419 33.1479 24.4525 32.4922 24.4525Z" fill="#DFFF5E"/>
<path d="M26.7113 10.7544C26.0767 10.0943 24.9688 10.5485 24.9688 11.4633V17.0602C24.9688 19.4076 26.9023 21.339 29.2497 21.339C30.7291 21.356 32.7836 21.3602 34.5283 21.356C35.4218 21.3539 35.876 20.2863 35.2563 19.6411C33.0171 17.3127 29.0078 13.14 26.7113 10.7544Z" fill="#DFFF5E"/>
<path d="M23.173 36.9144C24.0453 36.9144 24.7542 37.6233 24.7542 38.4956C24.7542 39.3679 24.0453 40.0747 23.173 40.0747H11.6184C10.7461 40.0747 10.0393 39.3679 10.0393 38.4956C10.0393 37.6233 10.7461 36.9144 11.6184 36.9144H23.173ZM18.8027 26.3145C19.675 26.3145 20.3839 27.0234 20.3839 27.8957C20.3839 28.768 19.675 29.4748 18.8027 29.4748H11.6182C10.7458 29.4748 10.0391 28.768 10.0391 27.8957C10.0391 27.0234 10.7458 26.3145 11.6182 26.3145H18.8027Z" fill="#196164"/>
</svg>
