<svg width="89" height="88" viewBox="0 0 89 88" fill="none" xmlns="http://www.w3.org/2000/svg">
<path d="M73.1575 57.8968C68.9494 65.9762 62.7278 72.0122 56.0918 75.2515C49.4558 78.4908 42.44 78.9215 36.5789 75.8689C30.7179 72.8163 27.0491 66.8207 25.8994 59.5262C24.7497 52.232 26.1291 43.674 30.3371 35.5945C34.5452 27.5151 40.7668 21.4791 47.4027 18.2398C54.0388 15.0005 61.0546 14.5698 66.9156 17.6224C72.7767 20.675 76.4454 26.6706 77.5952 33.9651C78.7449 41.2593 77.3655 49.8173 73.1575 57.8968Z" fill="#5D8BFF" stroke="black"/>
<path d="M58.6633 52.0999C54.4553 60.1793 48.2336 66.2154 41.5977 69.4546C34.9617 72.6939 27.9458 73.1246 22.0848 70.072C16.2238 67.0194 12.555 61.0238 11.4052 53.7294C10.2555 46.4351 11.6349 37.8771 15.843 29.7976C20.051 21.7182 26.2727 15.6822 32.9086 12.4429C39.5446 9.20363 46.5605 8.77294 52.4215 11.8256C58.2825 14.8782 61.9513 20.8738 63.101 28.1682C64.2508 35.4624 62.8714 44.0205 58.6633 52.0999Z" fill="#FFFEFB" stroke="black"/>
<path d="M65.791 16.8211L51.2969 11.0234" stroke="black"/>
<path d="M38.7031 76.6707L24.209 70.873" stroke="black"/>
</svg>
