<svg width="70" height="70" viewBox="0 0 70 70" fill="none" xmlns="http://www.w3.org/2000/svg">
<rect width="70" height="70" rx="35" fill="#29594B"/>
<path d="M37.2045 18.9059L40.4915 25.5113C40.7336 25.9899 41.1958 26.3222 41.7289 26.3961L49.1121 27.4714C49.5432 27.532 49.9345 27.7594 50.1989 28.1065C50.4602 28.4492 50.5724 28.8835 50.5089 29.3103C50.4573 29.6648 50.2904 29.9928 50.0349 30.2439L44.6851 35.4298C44.2938 35.7917 44.1166 36.3279 44.2111 36.8522L45.5283 44.143C45.6685 45.0234 45.0853 45.8535 44.2111 46.0204C43.8508 46.078 43.4817 46.0174 43.1568 45.852L36.571 42.4208C36.0822 42.1741 35.5049 42.1741 35.0161 42.4208L28.4303 45.852C27.6211 46.2818 26.6185 45.9894 26.1681 45.1918C26.0013 44.8742 25.9422 44.5123 25.9968 44.1593L27.314 36.867C27.4085 36.3441 27.2298 35.805 26.84 35.4431L21.4902 30.2601C20.8537 29.6456 20.8345 28.6339 21.4473 27.9972C21.4606 27.9839 21.4754 27.9692 21.4902 27.9544C21.7441 27.6959 22.0779 27.532 22.4382 27.4891L29.8213 26.4123C30.3529 26.337 30.8151 26.0076 31.0587 25.5261L34.2276 18.9059C34.5096 18.3387 35.0944 17.9857 35.7293 18.0004H35.9272C36.478 18.0669 36.9579 18.4081 37.2045 18.9059Z" fill="white"/>
<path d="M35.7514 42.2368C35.4654 42.2457 35.1868 42.3225 34.9362 42.46L28.3826 45.8834C27.5808 46.2661 26.6212 45.9691 26.1716 45.2022C26.005 44.889 25.9446 44.53 26.0006 44.1783L27.3095 36.9015C27.398 36.3725 27.2211 35.8347 26.8364 35.4624L21.4841 30.2807C20.8488 29.6587 20.837 28.6377 21.4591 28.0009C21.4679 27.992 21.4753 27.9846 21.4841 27.9772C21.7377 27.7261 22.0649 27.5606 22.4172 27.5089L29.8066 26.4214C30.3416 26.3534 30.806 26.0195 31.0418 25.5349L34.2537 18.8313C34.5589 18.2906 35.1441 17.9685 35.7632 18.0024C35.7514 18.4413 35.7514 41.9384 35.7514 42.2368Z" fill="#FFDF6C"/>
</svg>
