<svg width="79" height="79" viewBox="0 0 79 79" fill="none" xmlns="http://www.w3.org/2000/svg">
<g clip-path="url(#clip0_6473_26435)">
<path fill-rule="evenodd" clip-rule="evenodd" d="M1.99317 3.94931C1.73228 3.94691 1.47351 3.99622 1.23179 4.0944C0.99007 4.19258 0.770198 4.33767 0.584873 4.52131C0.399549 4.70494 0.252444 4.92348 0.152057 5.16429C0.0516697 5.4051 -1.10396e-05 5.66341 1.76884e-09 5.92431L1.76884e-09 61.4534C6.31613e-05 61.8298 0.107696 62.1984 0.310222 62.5157C0.512747 62.833 0.801729 63.0858 1.14313 63.2443L26.1593 74.8652C26.4257 74.9891 26.7163 75.052 27.0101 75.0493C27.2918 75.0471 27.5698 74.9846 27.8254 74.866L38.1428 70.0715C38.3158 68.4544 38.5986 66.8475 39.0513 65.2944L28.1611 70.3543L27.8696 19.3156L50.5229 8.79201L50.6445 30.0019C51.3824 29.4109 52.1728 28.8886 53.0058 28.4417L52.8913 8.51235L75.05 18.8053V41.5336C75.0539 41.7258 75.0539 41.918 75.05 42.1103V56.2465C76.2089 57.1234 77.2565 58.1417 78.1231 59.3172C78.4391 59.7399 78.7282 60.1768 79 60.6223V17.546C79.0001 17.1694 78.8925 16.8007 78.69 16.4833C78.4875 16.1658 78.1984 15.9129 77.8569 15.7543L52.8407 4.13338C52.5741 4.00939 52.2831 3.9465 51.9891 3.94931C51.7079 3.95178 51.4305 4.01426 51.1754 4.13259L26.9911 15.3672L2.80687 4.13338C2.55184 4.01478 2.27442 3.95203 1.99317 3.94931ZM3.95 9.01953L25.4973 19.0288L25.7903 70.3393L3.95 60.191V9.01953Z" fill="white"/>
<path d="M60.0401 29.8379C53.4949 29.8379 48.1901 35.1435 48.1901 41.6879C48.1901 48.2323 53.4949 53.5379 60.0401 53.5379C66.5836 53.5379 71.8901 48.2323 71.8901 41.6879C71.8901 35.1435 66.5836 29.8379 60.0401 29.8379ZM60.0401 55.2941C46.9498 55.2941 41.0801 61.1645 41.0801 74.2541V75.8341C41.1393 78.9467 42.5155 79.0383 45.4251 78.9941H74.6551C78.3641 78.9909 79.0254 78.998 79.0001 75.8341V74.2541C79.0001 61.1645 73.1288 55.2941 60.0401 55.2941Z" fill="white"/>
</g>
<defs>
<clipPath id="clip0_6473_26435">
<rect width="79" height="79" fill="white"/>
</clipPath>
</defs>
</svg>
