<svg width="54" height="68" viewBox="0 0 54 68" fill="none" xmlns="http://www.w3.org/2000/svg">
<path d="M16.2493 41.1667L37.7494 19.6667M18.041 21.4583H18.0769M35.9577 39.375H35.9935M52.0827 66.25V8.91667C52.0827 7.01595 51.3276 5.19308 49.9836 3.84907C48.6396 2.50506 46.8167 1.75 44.916 1.75H9.08268C7.18196 1.75 5.35909 2.50506 4.01508 3.84907C2.67107 5.19308 1.91602 7.01595 1.91602 8.91667V66.25L14.4577 59.0833L26.9994 66.25L39.541 59.0833L52.0827 66.25ZM19.8327 21.4583C19.8327 21.9335 19.6439 22.3892 19.3079 22.7252C18.9719 23.0612 18.5162 23.25 18.041 23.25C17.5658 23.25 17.1101 23.0612 16.7741 22.7252C16.4381 22.3892 16.2493 21.9335 16.2493 21.4583C16.2493 20.9832 16.4381 20.5274 16.7741 20.1914C17.1101 19.8554 17.5658 19.6667 18.041 19.6667C18.5162 19.6667 18.9719 19.8554 19.3079 20.1914C19.6439 20.5274 19.8327 20.9832 19.8327 21.4583ZM37.7494 39.375C37.7494 39.8502 37.5606 40.3059 37.2246 40.6419C36.8886 40.9779 36.4329 41.1667 35.9577 41.1667C35.4825 41.1667 35.0268 40.9779 34.6908 40.6419C34.3548 40.3059 34.166 39.8502 34.166 39.375C34.166 38.8998 34.3548 38.4441 34.6908 38.1081C35.0268 37.7721 35.4825 37.5833 35.9577 37.5833C36.4329 37.5833 36.8886 37.7721 37.2246 38.1081C37.5606 38.4441 37.7494 38.8998 37.7494 39.375Z" stroke="black" stroke-width="2" stroke-linecap="round" stroke-linejoin="round"/>
</svg>
